<?xml version="1.0" encoding="utf-8" standalone="no"?>
<!DOCTYPE svg PUBLIC "-//W3C//DTD SVG 1.1//EN"
  "http://www.w3.org/Graphics/SVG/1.1/DTD/svg11.dtd">
<svg xmlns:xlink="http://www.w3.org/1999/xlink" width="853.215937pt" height="421.617812pt" viewBox="0 0 853.215937 421.617812" xmlns="http://www.w3.org/2000/svg" version="1.1">
 <metadata>
  <rdf:RDF xmlns:dc="http://purl.org/dc/elements/1.1/" xmlns:cc="http://creativecommons.org/ns#" xmlns:rdf="http://www.w3.org/1999/02/22-rdf-syntax-ns#">
   <cc:Work>
    <dc:type rdf:resource="http://purl.org/dc/dcmitype/StillImage"/>
    <dc:date>2023-02-02T22:23:31.551824</dc:date>
    <dc:format>image/svg+xml</dc:format>
    <dc:creator>
     <cc:Agent>
      <dc:title>Matplotlib v3.6.2, https://matplotlib.org/</dc:title>
     </cc:Agent>
    </dc:creator>
   </cc:Work>
  </rdf:RDF>
 </metadata>
 <defs>
  <style type="text/css">*{stroke-linejoin: round; stroke-linecap: butt}</style>
 </defs>
 <g id="figure_1">
  <g id="patch_1">
   <path d="M 0 421.617812 
L 853.215937 421.617812 
L 853.215937 0 
L 0 0 
z
" style="fill: #ffffff"/>
  </g>
  <g id="axes_1">
   <g id="patch_2">
    <path d="M 56.805938 176.538125 
L 427.895937 176.538125 
L 427.895937 22.318125 
L 56.805938 22.318125 
L 56.805938 176.538125 
z
" style="fill: none"/>
   </g>
   <g id="matplotlib.axis_1">
    <g id="xtick_1">
     <g id="text_1">
      <!-- 2 -->
      <g style="fill: #262626" transform="translate(69.030715 194.396406) scale(0.11 -0.11)">
       <defs>
        <path id="DejaVuSans-32" d="M 1228 531 
L 3431 531 
L 3431 0 
L 469 0 
L 469 531 
Q 828 903 1448 1529 
Q 2069 2156 2228 2338 
Q 2531 2678 2651 2914 
Q 2772 3150 2772 3378 
Q 2772 3750 2511 3984 
Q 2250 4219 1831 4219 
Q 1534 4219 1204 4116 
Q 875 4013 500 3803 
L 500 4441 
Q 881 4594 1212 4672 
Q 1544 4750 1819 4750 
Q 2544 4750 2975 4387 
Q 3406 4025 3406 3419 
Q 3406 3131 3298 2873 
Q 3191 2616 2906 2266 
Q 2828 2175 2409 1742 
Q 1991 1309 1228 531 
z
" transform="scale(0.015625)"/>
       </defs>
       <use xlink:href="#DejaVuSans-32"/>
      </g>
     </g>
    </g>
    <g id="xtick_2">
     <g id="text_2">
      <!-- 4 -->
      <g style="fill: #262626" transform="translate(100.47902 194.396406) scale(0.11 -0.11)">
       <defs>
        <path id="DejaVuSans-34" d="M 2419 4116 
L 825 1625 
L 2419 1625 
L 2419 4116 
z
M 2253 4666 
L 3047 4666 
L 3047 1625 
L 3713 1625 
L 3713 1100 
L 3047 1100 
L 3047 0 
L 2419 0 
L 2419 1100 
L 313 1100 
L 313 1709 
L 2253 4666 
z
" transform="scale(0.015625)"/>
       </defs>
       <use xlink:href="#DejaVuSans-34"/>
      </g>
     </g>
    </g>
    <g id="xtick_3">
     <g id="text_3">
      <!-- 6 -->
      <g style="fill: #262626" transform="translate(131.927325 194.396406) scale(0.11 -0.11)">
       <defs>
        <path id="DejaVuSans-36" d="M 2113 2584 
Q 1688 2584 1439 2293 
Q 1191 2003 1191 1497 
Q 1191 994 1439 701 
Q 1688 409 2113 409 
Q 2538 409 2786 701 
Q 3034 994 3034 1497 
Q 3034 2003 2786 2293 
Q 2538 2584 2113 2584 
z
M 3366 4563 
L 3366 3988 
Q 3128 4100 2886 4159 
Q 2644 4219 2406 4219 
Q 1781 4219 1451 3797 
Q 1122 3375 1075 2522 
Q 1259 2794 1537 2939 
Q 1816 3084 2150 3084 
Q 2853 3084 3261 2657 
Q 3669 2231 3669 1497 
Q 3669 778 3244 343 
Q 2819 -91 2113 -91 
Q 1303 -91 875 529 
Q 447 1150 447 2328 
Q 447 3434 972 4092 
Q 1497 4750 2381 4750 
Q 2619 4750 2861 4703 
Q 3103 4656 3366 4563 
z
" transform="scale(0.015625)"/>
       </defs>
       <use xlink:href="#DejaVuSans-36"/>
      </g>
     </g>
    </g>
    <g id="xtick_4">
     <g id="text_4">
      <!-- 8 -->
      <g style="fill: #262626" transform="translate(163.37563 194.396406) scale(0.11 -0.11)">
       <defs>
        <path id="DejaVuSans-38" d="M 2034 2216 
Q 1584 2216 1326 1975 
Q 1069 1734 1069 1313 
Q 1069 891 1326 650 
Q 1584 409 2034 409 
Q 2484 409 2743 651 
Q 3003 894 3003 1313 
Q 3003 1734 2745 1975 
Q 2488 2216 2034 2216 
z
M 1403 2484 
Q 997 2584 770 2862 
Q 544 3141 544 3541 
Q 544 4100 942 4425 
Q 1341 4750 2034 4750 
Q 2731 4750 3128 4425 
Q 3525 4100 3525 3541 
Q 3525 3141 3298 2862 
Q 3072 2584 2669 2484 
Q 3125 2378 3379 2068 
Q 3634 1759 3634 1313 
Q 3634 634 3220 271 
Q 2806 -91 2034 -91 
Q 1263 -91 848 271 
Q 434 634 434 1313 
Q 434 1759 690 2068 
Q 947 2378 1403 2484 
z
M 1172 3481 
Q 1172 3119 1398 2916 
Q 1625 2713 2034 2713 
Q 2441 2713 2670 2916 
Q 2900 3119 2900 3481 
Q 2900 3844 2670 4047 
Q 2441 4250 2034 4250 
Q 1625 4250 1398 4047 
Q 1172 3844 1172 3481 
z
" transform="scale(0.015625)"/>
       </defs>
       <use xlink:href="#DejaVuSans-38"/>
      </g>
     </g>
    </g>
    <g id="xtick_5">
     <g id="text_5">
      <!-- 10 -->
      <g style="fill: #262626" transform="translate(191.32456 194.396406) scale(0.11 -0.11)">
       <defs>
        <path id="DejaVuSans-31" d="M 794 531 
L 1825 531 
L 1825 4091 
L 703 3866 
L 703 4441 
L 1819 4666 
L 2450 4666 
L 2450 531 
L 3481 531 
L 3481 0 
L 794 0 
L 794 531 
z
" transform="scale(0.015625)"/>
        <path id="DejaVuSans-30" d="M 2034 4250 
Q 1547 4250 1301 3770 
Q 1056 3291 1056 2328 
Q 1056 1369 1301 889 
Q 1547 409 2034 409 
Q 2525 409 2770 889 
Q 3016 1369 3016 2328 
Q 3016 3291 2770 3770 
Q 2525 4250 2034 4250 
z
M 2034 4750 
Q 2819 4750 3233 4129 
Q 3647 3509 3647 2328 
Q 3647 1150 3233 529 
Q 2819 -91 2034 -91 
Q 1250 -91 836 529 
Q 422 1150 422 2328 
Q 422 3509 836 4129 
Q 1250 4750 2034 4750 
z
" transform="scale(0.015625)"/>
       </defs>
       <use xlink:href="#DejaVuSans-31"/>
       <use xlink:href="#DejaVuSans-30" x="63.623047"/>
      </g>
     </g>
    </g>
    <g id="xtick_6">
     <g id="text_6">
      <!-- 12 -->
      <g style="fill: #262626" transform="translate(222.772865 194.396406) scale(0.11 -0.11)">
       <use xlink:href="#DejaVuSans-31"/>
       <use xlink:href="#DejaVuSans-32" x="63.623047"/>
      </g>
     </g>
    </g>
    <g id="xtick_7">
     <g id="text_7">
      <!-- 14 -->
      <g style="fill: #262626" transform="translate(254.221171 194.396406) scale(0.11 -0.11)">
       <use xlink:href="#DejaVuSans-31"/>
       <use xlink:href="#DejaVuSans-34" x="63.623047"/>
      </g>
     </g>
    </g>
    <g id="xtick_8">
     <g id="text_8">
      <!-- 16 -->
      <g style="fill: #262626" transform="translate(285.669476 194.396406) scale(0.11 -0.11)">
       <use xlink:href="#DejaVuSans-31"/>
       <use xlink:href="#DejaVuSans-36" x="63.623047"/>
      </g>
     </g>
    </g>
    <g id="xtick_9">
     <g id="text_9">
      <!-- 18 -->
      <g style="fill: #262626" transform="translate(317.117781 194.396406) scale(0.11 -0.11)">
       <use xlink:href="#DejaVuSans-31"/>
       <use xlink:href="#DejaVuSans-38" x="63.623047"/>
      </g>
     </g>
    </g>
    <g id="xtick_10">
     <g id="text_10">
      <!-- 20 -->
      <g style="fill: #262626" transform="translate(348.566086 194.396406) scale(0.11 -0.11)">
       <use xlink:href="#DejaVuSans-32"/>
       <use xlink:href="#DejaVuSans-30" x="63.623047"/>
      </g>
     </g>
    </g>
   </g>
   <g id="matplotlib.axis_2">
    <g id="ytick_1">
     <g id="text_11">
      <!-- 0.46 -->
      <g style="fill: #262626" transform="translate(22.81375 165.295266) scale(0.11 -0.11)">
       <defs>
        <path id="DejaVuSans-2e" d="M 684 794 
L 1344 794 
L 1344 0 
L 684 0 
L 684 794 
z
" transform="scale(0.015625)"/>
       </defs>
       <use xlink:href="#DejaVuSans-30"/>
       <use xlink:href="#DejaVuSans-2e" x="63.623047"/>
       <use xlink:href="#DejaVuSans-34" x="95.410156"/>
       <use xlink:href="#DejaVuSans-36" x="159.033203"/>
      </g>
     </g>
    </g>
    <g id="ytick_2">
     <g id="text_12">
      <!-- 0.48 -->
      <g style="fill: #262626" transform="translate(22.81375 134.451266) scale(0.11 -0.11)">
       <use xlink:href="#DejaVuSans-30"/>
       <use xlink:href="#DejaVuSans-2e" x="63.623047"/>
       <use xlink:href="#DejaVuSans-34" x="95.410156"/>
       <use xlink:href="#DejaVuSans-38" x="159.033203"/>
      </g>
     </g>
    </g>
    <g id="ytick_3">
     <g id="text_13">
      <!-- 0.50 -->
      <g style="fill: #262626" transform="translate(22.81375 103.607266) scale(0.11 -0.11)">
       <defs>
        <path id="DejaVuSans-35" d="M 691 4666 
L 3169 4666 
L 3169 4134 
L 1269 4134 
L 1269 2991 
Q 1406 3038 1543 3061 
Q 1681 3084 1819 3084 
Q 2600 3084 3056 2656 
Q 3513 2228 3513 1497 
Q 3513 744 3044 326 
Q 2575 -91 1722 -91 
Q 1428 -91 1123 -41 
Q 819 9 494 109 
L 494 744 
Q 775 591 1075 516 
Q 1375 441 1709 441 
Q 2250 441 2565 725 
Q 2881 1009 2881 1497 
Q 2881 1984 2565 2268 
Q 2250 2553 1709 2553 
Q 1456 2553 1204 2497 
Q 953 2441 691 2322 
L 691 4666 
z
" transform="scale(0.015625)"/>
       </defs>
       <use xlink:href="#DejaVuSans-30"/>
       <use xlink:href="#DejaVuSans-2e" x="63.623047"/>
       <use xlink:href="#DejaVuSans-35" x="95.410156"/>
       <use xlink:href="#DejaVuSans-30" x="159.033203"/>
      </g>
     </g>
    </g>
    <g id="ytick_4">
     <g id="text_14">
      <!-- 0.52 -->
      <g style="fill: #262626" transform="translate(22.81375 72.763266) scale(0.11 -0.11)">
       <use xlink:href="#DejaVuSans-30"/>
       <use xlink:href="#DejaVuSans-2e" x="63.623047"/>
       <use xlink:href="#DejaVuSans-35" x="95.410156"/>
       <use xlink:href="#DejaVuSans-32" x="159.033203"/>
      </g>
     </g>
    </g>
    <g id="ytick_5">
     <g id="text_15">
      <!-- 0.54 -->
      <g style="fill: #262626" transform="translate(22.81375 41.919266) scale(0.11 -0.11)">
       <use xlink:href="#DejaVuSans-30"/>
       <use xlink:href="#DejaVuSans-2e" x="63.623047"/>
       <use xlink:href="#DejaVuSans-35" x="95.410156"/>
       <use xlink:href="#DejaVuSans-34" x="159.033203"/>
      </g>
     </g>
    </g>
    <g id="text_16">
     <!-- Accuracy -->
     <g style="fill: #262626" transform="translate(16.318125 126.821875) rotate(-90) scale(0.12 -0.12)">
      <defs>
       <path id="DejaVuSans-41" d="M 2188 4044 
L 1331 1722 
L 3047 1722 
L 2188 4044 
z
M 1831 4666 
L 2547 4666 
L 4325 0 
L 3669 0 
L 3244 1197 
L 1141 1197 
L 716 0 
L 50 0 
L 1831 4666 
z
" transform="scale(0.015625)"/>
       <path id="DejaVuSans-63" d="M 3122 3366 
L 3122 2828 
Q 2878 2963 2633 3030 
Q 2388 3097 2138 3097 
Q 1578 3097 1268 2742 
Q 959 2388 959 1747 
Q 959 1106 1268 751 
Q 1578 397 2138 397 
Q 2388 397 2633 464 
Q 2878 531 3122 666 
L 3122 134 
Q 2881 22 2623 -34 
Q 2366 -91 2075 -91 
Q 1284 -91 818 406 
Q 353 903 353 1747 
Q 353 2603 823 3093 
Q 1294 3584 2113 3584 
Q 2378 3584 2631 3529 
Q 2884 3475 3122 3366 
z
" transform="scale(0.015625)"/>
       <path id="DejaVuSans-75" d="M 544 1381 
L 544 3500 
L 1119 3500 
L 1119 1403 
Q 1119 906 1312 657 
Q 1506 409 1894 409 
Q 2359 409 2629 706 
Q 2900 1003 2900 1516 
L 2900 3500 
L 3475 3500 
L 3475 0 
L 2900 0 
L 2900 538 
Q 2691 219 2414 64 
Q 2138 -91 1772 -91 
Q 1169 -91 856 284 
Q 544 659 544 1381 
z
M 1991 3584 
L 1991 3584 
z
" transform="scale(0.015625)"/>
       <path id="DejaVuSans-72" d="M 2631 2963 
Q 2534 3019 2420 3045 
Q 2306 3072 2169 3072 
Q 1681 3072 1420 2755 
Q 1159 2438 1159 1844 
L 1159 0 
L 581 0 
L 581 3500 
L 1159 3500 
L 1159 2956 
Q 1341 3275 1631 3429 
Q 1922 3584 2338 3584 
Q 2397 3584 2469 3576 
Q 2541 3569 2628 3553 
L 2631 2963 
z
" transform="scale(0.015625)"/>
       <path id="DejaVuSans-61" d="M 2194 1759 
Q 1497 1759 1228 1600 
Q 959 1441 959 1056 
Q 959 750 1161 570 
Q 1363 391 1709 391 
Q 2188 391 2477 730 
Q 2766 1069 2766 1631 
L 2766 1759 
L 2194 1759 
z
M 3341 1997 
L 3341 0 
L 2766 0 
L 2766 531 
Q 2569 213 2275 61 
Q 1981 -91 1556 -91 
Q 1019 -91 701 211 
Q 384 513 384 1019 
Q 384 1609 779 1909 
Q 1175 2209 1959 2209 
L 2766 2209 
L 2766 2266 
Q 2766 2663 2505 2880 
Q 2244 3097 1772 3097 
Q 1472 3097 1187 3025 
Q 903 2953 641 2809 
L 641 3341 
Q 956 3463 1253 3523 
Q 1550 3584 1831 3584 
Q 2591 3584 2966 3190 
Q 3341 2797 3341 1997 
z
" transform="scale(0.015625)"/>
       <path id="DejaVuSans-79" d="M 2059 -325 
Q 1816 -950 1584 -1140 
Q 1353 -1331 966 -1331 
L 506 -1331 
L 506 -850 
L 844 -850 
Q 1081 -850 1212 -737 
Q 1344 -625 1503 -206 
L 1606 56 
L 191 3500 
L 800 3500 
L 1894 763 
L 2988 3500 
L 3597 3500 
L 2059 -325 
z
" transform="scale(0.015625)"/>
      </defs>
      <use xlink:href="#DejaVuSans-41"/>
      <use xlink:href="#DejaVuSans-63" x="66.658203"/>
      <use xlink:href="#DejaVuSans-63" x="121.638672"/>
      <use xlink:href="#DejaVuSans-75" x="176.619141"/>
      <use xlink:href="#DejaVuSans-72" x="239.998047"/>
      <use xlink:href="#DejaVuSans-61" x="281.111328"/>
      <use xlink:href="#DejaVuSans-63" x="342.390625"/>
      <use xlink:href="#DejaVuSans-79" x="397.371094"/>
     </g>
    </g>
   </g>
   <g id="PolyCollection_1">
    <defs>
     <path id="m658d8d24c9" d="M 72.53009 -322.257793 
L 72.53009 -296.354626 
L 88.254243 -262.157417 
L 103.978395 -265.913227 
L 119.702548 -254.583178 
L 135.4267 -272.42057 
L 151.150853 -241.027664 
L 166.875005 -262.591917 
L 182.599158 -249.253237 
L 198.32331 -244.668944 
L 214.047463 -223.991777 
L 229.771615 -241.496899 
L 245.495768 -231.777597 
L 261.219921 -229.542823 
L 276.944073 -237.000482 
L 292.668226 -236.2486 
L 308.392378 -241.368812 
L 324.116531 -226.090471 
L 339.840683 -237.631076 
L 355.564836 -206.063369 
L 355.564836 -285.701888 
L 355.564836 -285.701888 
L 339.840683 -272.797695 
L 324.116531 -291.881131 
L 308.392378 -287.692128 
L 292.668226 -281.68114 
L 276.944073 -291.861668 
L 261.219921 -291.462637 
L 245.495768 -295.086365 
L 229.771615 -282.406447 
L 214.047463 -306.157155 
L 198.32331 -295.952069 
L 182.599158 -298.670009 
L 166.875005 -307.677324 
L 151.150853 -307.00019 
L 135.4267 -324.170101 
L 119.702548 -310.727278 
L 103.978395 -319.609064 
L 88.254243 -307.546906 
L 72.53009 -322.257793 
z
" style="stroke: #f77189; stroke-opacity: 0.2"/>
    </defs>
    <g clip-path="url(#pad68981a73)">
     <use xlink:href="#m658d8d24c9" x="0" y="421.617812" style="fill: #f77189; fill-opacity: 0.2; stroke: #f77189; stroke-opacity: 0.2"/>
    </g>
   </g>
   <g id="PolyCollection_2">
    <defs>
     <path id="m0d0d4e03a7" d="M 72.53009 -357.355868 
L 72.53009 -300.979295 
L 88.254243 -308.701008 
L 103.978395 -318.840908 
L 119.702548 -317.770182 
L 135.4267 -325.240117 
L 151.150853 -314.692357 
L 166.875005 -335.534928 
L 182.599158 -321.840307 
L 198.32331 -323.690883 
L 214.047463 -326.449517 
L 229.771615 -315.084309 
L 245.495768 -313.884441 
L 261.219921 -320.772113 
L 276.944073 -327.793228 
L 292.668226 -327.649095 
L 308.392378 -318.539404 
L 324.116531 -318.865781 
L 339.840683 -319.762922 
L 355.564836 -298.849554 
L 355.564836 -332.128508 
L 355.564836 -332.128508 
L 339.840683 -348.155084 
L 324.116531 -339.919231 
L 308.392378 -371.620025 
L 292.668226 -347.194575 
L 276.944073 -347.939624 
L 261.219921 -348.401349 
L 245.495768 -355.445914 
L 229.771615 -364.822734 
L 214.047463 -358.751073 
L 198.32331 -348.987153 
L 182.599158 -361.121534 
L 166.875005 -349.634335 
L 151.150853 -365.434399 
L 135.4267 -357.585716 
L 119.702548 -353.589743 
L 103.978395 -347.999548 
L 88.254243 -348.2114 
L 72.53009 -357.355868 
z
" style="stroke: #ae9d31; stroke-opacity: 0.2"/>
    </defs>
    <g clip-path="url(#pad68981a73)">
     <use xlink:href="#m0d0d4e03a7" x="0" y="421.617812" style="fill: #ae9d31; fill-opacity: 0.2; stroke: #ae9d31; stroke-opacity: 0.2"/>
    </g>
   </g>
   <g id="PolyCollection_3">
    <defs>
     <path id="m0ab138e53b" d="M 72.53009 -319.930059 
L 72.53009 -281.190506 
L 88.254243 -270.20648 
L 103.978395 -295.602652 
L 119.702548 -293.163991 
L 135.4267 -295.156747 
L 151.150853 -308.564269 
L 166.875005 -304.666348 
L 182.599158 -311.842446 
L 198.32331 -310.492502 
L 214.047463 -302.022796 
L 229.771615 -313.63732 
L 245.495768 -313.052498 
L 261.219921 -309.645517 
L 276.944073 -318.359243 
L 292.668226 -312.440025 
L 308.392378 -310.200883 
L 324.116531 -306.542166 
L 339.840683 -305.983152 
L 355.564836 -306.64626 
L 355.564836 -347.68214 
L 355.564836 -347.68214 
L 339.840683 -351.661546 
L 324.116531 -353.100702 
L 308.392378 -351.440155 
L 292.668226 -345.037282 
L 276.944073 -346.263386 
L 261.219921 -343.887755 
L 245.495768 -344.267953 
L 229.771615 -329.570321 
L 214.047463 -340.211959 
L 198.32331 -336.4709 
L 182.599158 -340.445885 
L 166.875005 -344.106931 
L 151.150853 -330.542481 
L 135.4267 -333.038478 
L 119.702548 -342.69963 
L 103.978395 -323.428198 
L 88.254243 -328.957758 
L 72.53009 -319.930059 
z
" style="stroke: #33b07a; stroke-opacity: 0.2"/>
    </defs>
    <g clip-path="url(#pad68981a73)">
     <use xlink:href="#m0ab138e53b" x="0" y="421.617812" style="fill: #33b07a; fill-opacity: 0.2; stroke: #33b07a; stroke-opacity: 0.2"/>
    </g>
   </g>
   <g id="PolyCollection_4">
    <defs>
     <path id="mf291f2615d" d="M 72.53009 -337.657566 
L 72.53009 -290.077386 
L 88.254243 -305.403435 
L 103.978395 -322.073732 
L 119.702548 -322.468269 
L 135.4267 -321.963624 
L 151.150853 -333.055179 
L 166.875005 -329.832981 
L 182.599158 -315.153031 
L 198.32331 -334.578981 
L 214.047463 -323.487196 
L 229.771615 -335.626767 
L 245.495768 -333.917594 
L 261.219921 -332.806906 
L 276.944073 -331.379075 
L 292.668226 -331.082804 
L 308.392378 -329.946492 
L 324.116531 -330.533907 
L 339.840683 -330.532939 
L 355.564836 -335.13118 
L 355.564836 -385.513429 
L 355.564836 -385.513429 
L 339.840683 -388.19715 
L 324.116531 -381.260168 
L 308.392378 -383.144808 
L 292.668226 -391.61226 
L 276.944073 -382.298064 
L 261.219921 -385.682603 
L 245.495768 -384.299973 
L 229.771615 -372.139604 
L 214.047463 -368.921535 
L 198.32331 -381.347441 
L 182.599158 -376.680267 
L 166.875005 -360.336891 
L 151.150853 -338.754541 
L 135.4267 -362.264097 
L 119.702548 -346.746981 
L 103.978395 -345.886172 
L 88.254243 -336.590704 
L 72.53009 -337.657566 
z
" style="stroke: #38a9c5; stroke-opacity: 0.2"/>
    </defs>
    <g clip-path="url(#pad68981a73)">
     <use xlink:href="#mf291f2615d" x="0" y="421.617812" style="fill: #38a9c5; fill-opacity: 0.2; stroke: #38a9c5; stroke-opacity: 0.2"/>
    </g>
   </g>
   <g id="PolyCollection_5">
    <defs>
     <path id="m42e9580330" d="M 72.53009 -328.60596 
L 72.53009 -288.447678 
L 88.254243 -296.975994 
L 103.978395 -286.13672 
L 119.702548 -296.950977 
L 135.4267 -298.365643 
L 151.150853 -302.735411 
L 166.875005 -317.686977 
L 182.599158 -314.481475 
L 198.32331 -315.876201 
L 214.047463 -327.29355 
L 229.771615 -317.850845 
L 245.495768 -324.444337 
L 261.219921 -324.377951 
L 276.944073 -308.347984 
L 292.668226 -318.21588 
L 308.392378 -320.895075 
L 324.116531 -325.999514 
L 339.840683 -317.840469 
L 355.564836 -332.756791 
L 355.564836 -370.291356 
L 355.564836 -370.291356 
L 339.840683 -365.424716 
L 324.116531 -374.349519 
L 308.392378 -364.27417 
L 292.668226 -355.581604 
L 276.944073 -365.690116 
L 261.219921 -371.838716 
L 245.495768 -370.945931 
L 229.771615 -362.694341 
L 214.047463 -360.260986 
L 198.32331 -357.167999 
L 182.599158 -356.920275 
L 166.875005 -349.571965 
L 151.150853 -356.070541 
L 135.4267 -338.837046 
L 119.702548 -349.635764 
L 103.978395 -361.381139 
L 88.254243 -351.577535 
L 72.53009 -328.60596 
z
" style="stroke: #cc7af4; stroke-opacity: 0.2"/>
    </defs>
    <g clip-path="url(#pad68981a73)">
     <use xlink:href="#m42e9580330" x="0" y="421.617812" style="fill: #cc7af4; fill-opacity: 0.2; stroke: #cc7af4; stroke-opacity: 0.2"/>
    </g>
   </g>
   <g id="line2d_1">
    <path d="M 72.53009 112.311603 
L 88.254243 136.765651 
L 103.978395 128.856667 
L 119.702548 138.962585 
L 135.4267 123.322477 
L 151.150853 147.603886 
L 166.875005 136.483192 
L 182.599158 147.65619 
L 198.32331 151.307306 
L 214.047463 156.543346 
L 229.771615 159.666139 
L 245.495768 158.185832 
L 261.219921 161.115083 
L 276.944073 157.186738 
L 292.668226 162.652942 
L 308.392378 157.087342 
L 324.116531 162.632012 
L 339.840683 166.403427 
L 355.564836 175.735184 
" clip-path="url(#pad68981a73)" style="fill: none; stroke: #f77189; stroke-width: 1.5; stroke-linecap: round"/>
   </g>
   <g id="line2d_2">
    <path d="M 72.53009 92.450231 
L 88.254243 93.161608 
L 103.978395 88.197584 
L 119.702548 85.93785 
L 135.4267 80.204896 
L 151.150853 81.554435 
L 166.875005 79.033181 
L 182.599158 80.136892 
L 198.32331 85.278795 
L 214.047463 79.017517 
L 229.771615 81.664291 
L 245.495768 86.952635 
L 261.219921 87.031081 
L 276.944073 83.751386 
L 292.668226 84.195978 
L 308.392378 76.538098 
L 324.116531 92.225306 
L 339.840683 87.65881 
L 355.564836 106.128781 
" clip-path="url(#pad68981a73)" style="fill: none; stroke: #ae9d31; stroke-width: 1.5; stroke-linecap: round"/>
   </g>
   <g id="line2d_3">
    <path d="M 72.53009 121.05753 
L 88.254243 122.035694 
L 103.978395 112.102388 
L 119.702548 103.686002 
L 135.4267 107.5202 
L 151.150853 102.064438 
L 166.875005 97.231173 
L 182.599158 95.473647 
L 198.32331 98.136111 
L 214.047463 100.500435 
L 229.771615 100.013992 
L 245.495768 92.957587 
L 261.219921 94.851177 
L 276.944073 89.306498 
L 292.668226 92.879159 
L 308.392378 90.797294 
L 324.116531 91.796379 
L 339.840683 92.795463 
L 355.564836 94.453613 
" clip-path="url(#pad68981a73)" style="fill: none; stroke: #33b07a; stroke-width: 1.5; stroke-linecap: round"/>
   </g>
   <g id="line2d_4">
    <path d="M 72.53009 107.750336 
L 88.254243 100.620743 
L 103.978395 87.63786 
L 119.702548 87.010187 
L 135.4267 79.503952 
L 151.150853 85.712953 
L 166.875005 76.532876 
L 182.599158 75.701164 
L 198.32331 63.654601 
L 214.047463 75.413447 
L 229.771615 67.734627 
L 245.495768 62.509029 
L 261.219921 62.373058 
L 276.944073 64.779243 
L 292.668226 60.27028 
L 308.392378 65.072162 
L 324.116531 65.720775 
L 339.840683 62.252768 
L 355.564836 61.295508 
" clip-path="url(#pad68981a73)" style="fill: none; stroke: #38a9c5; stroke-width: 1.5; stroke-linecap: round"/>
   </g>
   <g id="line2d_5">
    <path d="M 72.53009 113.090994 
L 88.254243 97.341048 
L 103.978395 97.858883 
L 119.702548 98.324442 
L 135.4267 103.016468 
L 151.150853 92.214836 
L 166.875005 87.988342 
L 182.599158 85.916937 
L 198.32331 85.095713 
L 214.047463 77.840544 
L 229.771615 81.345219 
L 245.495768 73.922679 
L 261.219921 73.509479 
L 276.944073 84.598763 
L 292.668226 84.719071 
L 308.392378 79.03319 
L 324.116531 71.443296 
L 339.840683 79.98522 
L 355.564836 70.093739 
" clip-path="url(#pad68981a73)" style="fill: none; stroke: #cc7af4; stroke-width: 1.5; stroke-linecap: round"/>
   </g>
   <g id="line2d_6"/>
   <g id="line2d_7"/>
   <g id="line2d_8"/>
   <g id="line2d_9"/>
   <g id="line2d_10"/>
   <g id="patch_3">
    <path d="M 56.805938 176.538125 
L 56.805938 22.318125 
" style="fill: none; stroke: #262626; stroke-width: 1.25; stroke-linejoin: miter; stroke-linecap: square"/>
   </g>
   <g id="patch_4">
    <path d="M 56.805938 176.538125 
L 427.895937 176.538125 
" style="fill: none; stroke: #262626; stroke-width: 1.25; stroke-linejoin: miter; stroke-linecap: square"/>
   </g>
   <g id="text_17">
    <!-- Labeled Size: 100 -->
    <g style="fill: #262626" transform="translate(189.057812 16.318125) scale(0.12 -0.12)">
     <defs>
      <path id="DejaVuSans-4c" d="M 628 4666 
L 1259 4666 
L 1259 531 
L 3531 531 
L 3531 0 
L 628 0 
L 628 4666 
z
" transform="scale(0.015625)"/>
      <path id="DejaVuSans-62" d="M 3116 1747 
Q 3116 2381 2855 2742 
Q 2594 3103 2138 3103 
Q 1681 3103 1420 2742 
Q 1159 2381 1159 1747 
Q 1159 1113 1420 752 
Q 1681 391 2138 391 
Q 2594 391 2855 752 
Q 3116 1113 3116 1747 
z
M 1159 2969 
Q 1341 3281 1617 3432 
Q 1894 3584 2278 3584 
Q 2916 3584 3314 3078 
Q 3713 2572 3713 1747 
Q 3713 922 3314 415 
Q 2916 -91 2278 -91 
Q 1894 -91 1617 61 
Q 1341 213 1159 525 
L 1159 0 
L 581 0 
L 581 4863 
L 1159 4863 
L 1159 2969 
z
" transform="scale(0.015625)"/>
      <path id="DejaVuSans-65" d="M 3597 1894 
L 3597 1613 
L 953 1613 
Q 991 1019 1311 708 
Q 1631 397 2203 397 
Q 2534 397 2845 478 
Q 3156 559 3463 722 
L 3463 178 
Q 3153 47 2828 -22 
Q 2503 -91 2169 -91 
Q 1331 -91 842 396 
Q 353 884 353 1716 
Q 353 2575 817 3079 
Q 1281 3584 2069 3584 
Q 2775 3584 3186 3129 
Q 3597 2675 3597 1894 
z
M 3022 2063 
Q 3016 2534 2758 2815 
Q 2500 3097 2075 3097 
Q 1594 3097 1305 2825 
Q 1016 2553 972 2059 
L 3022 2063 
z
" transform="scale(0.015625)"/>
      <path id="DejaVuSans-6c" d="M 603 4863 
L 1178 4863 
L 1178 0 
L 603 0 
L 603 4863 
z
" transform="scale(0.015625)"/>
      <path id="DejaVuSans-64" d="M 2906 2969 
L 2906 4863 
L 3481 4863 
L 3481 0 
L 2906 0 
L 2906 525 
Q 2725 213 2448 61 
Q 2172 -91 1784 -91 
Q 1150 -91 751 415 
Q 353 922 353 1747 
Q 353 2572 751 3078 
Q 1150 3584 1784 3584 
Q 2172 3584 2448 3432 
Q 2725 3281 2906 2969 
z
M 947 1747 
Q 947 1113 1208 752 
Q 1469 391 1925 391 
Q 2381 391 2643 752 
Q 2906 1113 2906 1747 
Q 2906 2381 2643 2742 
Q 2381 3103 1925 3103 
Q 1469 3103 1208 2742 
Q 947 2381 947 1747 
z
" transform="scale(0.015625)"/>
      <path id="DejaVuSans-20" transform="scale(0.015625)"/>
      <path id="DejaVuSans-53" d="M 3425 4513 
L 3425 3897 
Q 3066 4069 2747 4153 
Q 2428 4238 2131 4238 
Q 1616 4238 1336 4038 
Q 1056 3838 1056 3469 
Q 1056 3159 1242 3001 
Q 1428 2844 1947 2747 
L 2328 2669 
Q 3034 2534 3370 2195 
Q 3706 1856 3706 1288 
Q 3706 609 3251 259 
Q 2797 -91 1919 -91 
Q 1588 -91 1214 -16 
Q 841 59 441 206 
L 441 856 
Q 825 641 1194 531 
Q 1563 422 1919 422 
Q 2459 422 2753 634 
Q 3047 847 3047 1241 
Q 3047 1584 2836 1778 
Q 2625 1972 2144 2069 
L 1759 2144 
Q 1053 2284 737 2584 
Q 422 2884 422 3419 
Q 422 4038 858 4394 
Q 1294 4750 2059 4750 
Q 2388 4750 2728 4690 
Q 3069 4631 3425 4513 
z
" transform="scale(0.015625)"/>
      <path id="DejaVuSans-69" d="M 603 3500 
L 1178 3500 
L 1178 0 
L 603 0 
L 603 3500 
z
M 603 4863 
L 1178 4863 
L 1178 4134 
L 603 4134 
L 603 4863 
z
" transform="scale(0.015625)"/>
      <path id="DejaVuSans-7a" d="M 353 3500 
L 3084 3500 
L 3084 2975 
L 922 459 
L 3084 459 
L 3084 0 
L 275 0 
L 275 525 
L 2438 3041 
L 353 3041 
L 353 3500 
z
" transform="scale(0.015625)"/>
      <path id="DejaVuSans-3a" d="M 750 794 
L 1409 794 
L 1409 0 
L 750 0 
L 750 794 
z
M 750 3309 
L 1409 3309 
L 1409 2516 
L 750 2516 
L 750 3309 
z
" transform="scale(0.015625)"/>
     </defs>
     <use xlink:href="#DejaVuSans-4c"/>
     <use xlink:href="#DejaVuSans-61" x="55.712891"/>
     <use xlink:href="#DejaVuSans-62" x="116.992188"/>
     <use xlink:href="#DejaVuSans-65" x="180.46875"/>
     <use xlink:href="#DejaVuSans-6c" x="241.992188"/>
     <use xlink:href="#DejaVuSans-65" x="269.775391"/>
     <use xlink:href="#DejaVuSans-64" x="331.298828"/>
     <use xlink:href="#DejaVuSans-20" x="394.775391"/>
     <use xlink:href="#DejaVuSans-53" x="426.5625"/>
     <use xlink:href="#DejaVuSans-69" x="490.039062"/>
     <use xlink:href="#DejaVuSans-7a" x="517.822266"/>
     <use xlink:href="#DejaVuSans-65" x="570.3125"/>
     <use xlink:href="#DejaVuSans-3a" x="631.835938"/>
     <use xlink:href="#DejaVuSans-20" x="665.527344"/>
     <use xlink:href="#DejaVuSans-31" x="697.314453"/>
     <use xlink:href="#DejaVuSans-30" x="760.9375"/>
     <use xlink:href="#DejaVuSans-30" x="824.560547"/>
    </g>
   </g>
   <g id="legend_1">
    <g id="patch_5">
     <path d="M 360.50375 111.847813 
L 420.195937 111.847813 
Q 422.395937 111.847813 422.395937 109.647813 
L 422.395937 30.018125 
Q 422.395937 27.818125 420.195937 27.818125 
L 360.50375 27.818125 
Q 358.30375 27.818125 358.30375 30.018125 
L 358.30375 109.647813 
Q 358.30375 111.847813 360.50375 111.847813 
z
" style="fill: #ffffff; opacity: 0.8; stroke: #cccccc; stroke-linejoin: miter"/>
    </g>
    <g id="line2d_11">
     <path d="M 362.70375 36.726406 
L 373.70375 36.726406 
L 384.70375 36.726406 
" style="fill: none; stroke: #f77189; stroke-width: 1.5; stroke-linecap: round"/>
    </g>
    <g id="text_18">
     <!-- 0.05 -->
     <g style="fill: #262626" transform="translate(393.50375 40.576406) scale(0.11 -0.11)">
      <use xlink:href="#DejaVuSans-30"/>
      <use xlink:href="#DejaVuSans-2e" x="63.623047"/>
      <use xlink:href="#DejaVuSans-30" x="95.410156"/>
      <use xlink:href="#DejaVuSans-35" x="159.033203"/>
     </g>
    </g>
    <g id="line2d_12">
     <path d="M 362.70375 52.872344 
L 373.70375 52.872344 
L 384.70375 52.872344 
" style="fill: none; stroke: #ae9d31; stroke-width: 1.5; stroke-linecap: round"/>
    </g>
    <g id="text_19">
     <!-- 0.25 -->
     <g style="fill: #262626" transform="translate(393.50375 56.722344) scale(0.11 -0.11)">
      <use xlink:href="#DejaVuSans-30"/>
      <use xlink:href="#DejaVuSans-2e" x="63.623047"/>
      <use xlink:href="#DejaVuSans-32" x="95.410156"/>
      <use xlink:href="#DejaVuSans-35" x="159.033203"/>
     </g>
    </g>
    <g id="line2d_13">
     <path d="M 362.70375 69.018281 
L 373.70375 69.018281 
L 384.70375 69.018281 
" style="fill: none; stroke: #33b07a; stroke-width: 1.5; stroke-linecap: round"/>
    </g>
    <g id="text_20">
     <!-- 0.5 -->
     <g style="fill: #262626" transform="translate(393.50375 72.868281) scale(0.11 -0.11)">
      <use xlink:href="#DejaVuSans-30"/>
      <use xlink:href="#DejaVuSans-2e" x="63.623047"/>
      <use xlink:href="#DejaVuSans-35" x="95.410156"/>
     </g>
    </g>
    <g id="line2d_14">
     <path d="M 362.70375 85.164219 
L 373.70375 85.164219 
L 384.70375 85.164219 
" style="fill: none; stroke: #38a9c5; stroke-width: 1.5; stroke-linecap: round"/>
    </g>
    <g id="text_21">
     <!-- 0.75 -->
     <g style="fill: #262626" transform="translate(393.50375 89.014219) scale(0.11 -0.11)">
      <defs>
       <path id="DejaVuSans-37" d="M 525 4666 
L 3525 4666 
L 3525 4397 
L 1831 0 
L 1172 0 
L 2766 4134 
L 525 4134 
L 525 4666 
z
" transform="scale(0.015625)"/>
      </defs>
      <use xlink:href="#DejaVuSans-30"/>
      <use xlink:href="#DejaVuSans-2e" x="63.623047"/>
      <use xlink:href="#DejaVuSans-37" x="95.410156"/>
      <use xlink:href="#DejaVuSans-35" x="159.033203"/>
     </g>
    </g>
    <g id="line2d_15">
     <path d="M 362.70375 101.310156 
L 373.70375 101.310156 
L 384.70375 101.310156 
" style="fill: none; stroke: #cc7af4; stroke-width: 1.5; stroke-linecap: round"/>
    </g>
    <g id="text_22">
     <!-- 1.0 -->
     <g style="fill: #262626" transform="translate(393.50375 105.160156) scale(0.11 -0.11)">
      <use xlink:href="#DejaVuSans-31"/>
      <use xlink:href="#DejaVuSans-2e" x="63.623047"/>
      <use xlink:href="#DejaVuSans-30" x="95.410156"/>
     </g>
    </g>
   </g>
  </g>
  <g id="axes_2">
   <g id="patch_6">
    <path d="M 474.925937 176.538125 
L 846.015937 176.538125 
L 846.015937 22.318125 
L 474.925937 22.318125 
L 474.925937 176.538125 
z
" style="fill: none"/>
   </g>
   <g id="matplotlib.axis_3">
    <g id="xtick_11">
     <g id="text_23">
      <!-- 2 -->
      <g style="fill: #262626" transform="translate(487.150715 194.396406) scale(0.11 -0.11)">
       <use xlink:href="#DejaVuSans-32"/>
      </g>
     </g>
    </g>
    <g id="xtick_12">
     <g id="text_24">
      <!-- 4 -->
      <g style="fill: #262626" transform="translate(518.59902 194.396406) scale(0.11 -0.11)">
       <use xlink:href="#DejaVuSans-34"/>
      </g>
     </g>
    </g>
    <g id="xtick_13">
     <g id="text_25">
      <!-- 6 -->
      <g style="fill: #262626" transform="translate(550.047325 194.396406) scale(0.11 -0.11)">
       <use xlink:href="#DejaVuSans-36"/>
      </g>
     </g>
    </g>
    <g id="xtick_14">
     <g id="text_26">
      <!-- 8 -->
      <g style="fill: #262626" transform="translate(581.49563 194.396406) scale(0.11 -0.11)">
       <use xlink:href="#DejaVuSans-38"/>
      </g>
     </g>
    </g>
    <g id="xtick_15">
     <g id="text_27">
      <!-- 10 -->
      <g style="fill: #262626" transform="translate(609.44456 194.396406) scale(0.11 -0.11)">
       <use xlink:href="#DejaVuSans-31"/>
       <use xlink:href="#DejaVuSans-30" x="63.623047"/>
      </g>
     </g>
    </g>
    <g id="xtick_16">
     <g id="text_28">
      <!-- 12 -->
      <g style="fill: #262626" transform="translate(640.892865 194.396406) scale(0.11 -0.11)">
       <use xlink:href="#DejaVuSans-31"/>
       <use xlink:href="#DejaVuSans-32" x="63.623047"/>
      </g>
     </g>
    </g>
    <g id="xtick_17">
     <g id="text_29">
      <!-- 14 -->
      <g style="fill: #262626" transform="translate(672.341171 194.396406) scale(0.11 -0.11)">
       <use xlink:href="#DejaVuSans-31"/>
       <use xlink:href="#DejaVuSans-34" x="63.623047"/>
      </g>
     </g>
    </g>
    <g id="xtick_18">
     <g id="text_30">
      <!-- 16 -->
      <g style="fill: #262626" transform="translate(703.789476 194.396406) scale(0.11 -0.11)">
       <use xlink:href="#DejaVuSans-31"/>
       <use xlink:href="#DejaVuSans-36" x="63.623047"/>
      </g>
     </g>
    </g>
    <g id="xtick_19">
     <g id="text_31">
      <!-- 18 -->
      <g style="fill: #262626" transform="translate(735.237781 194.396406) scale(0.11 -0.11)">
       <use xlink:href="#DejaVuSans-31"/>
       <use xlink:href="#DejaVuSans-38" x="63.623047"/>
      </g>
     </g>
    </g>
    <g id="xtick_20">
     <g id="text_32">
      <!-- 20 -->
      <g style="fill: #262626" transform="translate(766.686086 194.396406) scale(0.11 -0.11)">
       <use xlink:href="#DejaVuSans-32"/>
       <use xlink:href="#DejaVuSans-30" x="63.623047"/>
      </g>
     </g>
    </g>
   </g>
   <g id="matplotlib.axis_4">
    <g id="ytick_6">
     <g id="text_33">
      <!-- 0.48 -->
      <g style="fill: #262626" transform="translate(440.93375 180.717266) scale(0.11 -0.11)">
       <use xlink:href="#DejaVuSans-30"/>
       <use xlink:href="#DejaVuSans-2e" x="63.623047"/>
       <use xlink:href="#DejaVuSans-34" x="95.410156"/>
       <use xlink:href="#DejaVuSans-38" x="159.033203"/>
      </g>
     </g>
    </g>
    <g id="ytick_7">
     <g id="text_34">
      <!-- 0.50 -->
      <g style="fill: #262626" transform="translate(440.93375 149.873266) scale(0.11 -0.11)">
       <use xlink:href="#DejaVuSans-30"/>
       <use xlink:href="#DejaVuSans-2e" x="63.623047"/>
       <use xlink:href="#DejaVuSans-35" x="95.410156"/>
       <use xlink:href="#DejaVuSans-30" x="159.033203"/>
      </g>
     </g>
    </g>
    <g id="ytick_8">
     <g id="text_35">
      <!-- 0.52 -->
      <g style="fill: #262626" transform="translate(440.93375 119.029266) scale(0.11 -0.11)">
       <use xlink:href="#DejaVuSans-30"/>
       <use xlink:href="#DejaVuSans-2e" x="63.623047"/>
       <use xlink:href="#DejaVuSans-35" x="95.410156"/>
       <use xlink:href="#DejaVuSans-32" x="159.033203"/>
      </g>
     </g>
    </g>
    <g id="ytick_9">
     <g id="text_36">
      <!-- 0.54 -->
      <g style="fill: #262626" transform="translate(440.93375 88.185266) scale(0.11 -0.11)">
       <use xlink:href="#DejaVuSans-30"/>
       <use xlink:href="#DejaVuSans-2e" x="63.623047"/>
       <use xlink:href="#DejaVuSans-35" x="95.410156"/>
       <use xlink:href="#DejaVuSans-34" x="159.033203"/>
      </g>
     </g>
    </g>
    <g id="ytick_10">
     <g id="text_37">
      <!-- 0.56 -->
      <g style="fill: #262626" transform="translate(440.93375 57.341266) scale(0.11 -0.11)">
       <use xlink:href="#DejaVuSans-30"/>
       <use xlink:href="#DejaVuSans-2e" x="63.623047"/>
       <use xlink:href="#DejaVuSans-35" x="95.410156"/>
       <use xlink:href="#DejaVuSans-36" x="159.033203"/>
      </g>
     </g>
    </g>
    <g id="ytick_11">
     <g id="text_38">
      <!-- 0.58 -->
      <g style="fill: #262626" transform="translate(440.93375 26.497266) scale(0.11 -0.11)">
       <use xlink:href="#DejaVuSans-30"/>
       <use xlink:href="#DejaVuSans-2e" x="63.623047"/>
       <use xlink:href="#DejaVuSans-35" x="95.410156"/>
       <use xlink:href="#DejaVuSans-38" x="159.033203"/>
      </g>
     </g>
    </g>
   </g>
   <g id="PolyCollection_6">
    <defs>
     <path id="m7459141329" d="M 490.65009 -359.869106 
L 490.65009 -325.92889 
L 506.374243 -309.054564 
L 522.098395 -301.725642 
L 537.822548 -309.594741 
L 553.5467 -321.440678 
L 569.270853 -306.359415 
L 584.995005 -324.1744 
L 600.719158 -310.132969 
L 616.44331 -316.874822 
L 632.167463 -322.199201 
L 647.891615 -320.584476 
L 663.615768 -311.313469 
L 679.339921 -309.931249 
L 695.064073 -315.058083 
L 710.788226 -308.007145 
L 726.512378 -310.926136 
L 742.236531 -303.362595 
L 757.960683 -307.336208 
L 773.684836 -323.656133 
L 773.684836 -337.054913 
L 773.684836 -337.054913 
L 757.960683 -346.417828 
L 742.236531 -342.900878 
L 726.512378 -334.092452 
L 710.788226 -347.033656 
L 695.064073 -332.314341 
L 679.339921 -336.123046 
L 663.615768 -338.32914 
L 647.891615 -334.916672 
L 632.167463 -345.217758 
L 616.44331 -335.623813 
L 600.719158 -351.404494 
L 584.995005 -340.229605 
L 569.270853 -344.590881 
L 553.5467 -334.029069 
L 537.822548 -348.720589 
L 522.098395 -342.769835 
L 506.374243 -345.30627 
L 490.65009 -359.869106 
z
" style="stroke: #f77189; stroke-opacity: 0.2"/>
    </defs>
    <g clip-path="url(#pa1dd51ad70)">
     <use xlink:href="#m7459141329" x="0" y="421.617812" style="fill: #f77189; fill-opacity: 0.2; stroke: #f77189; stroke-opacity: 0.2"/>
    </g>
   </g>
   <g id="PolyCollection_7">
    <defs>
     <path id="mc465795632" d="M 490.65009 -348.889153 
L 490.65009 -286.536094 
L 506.374243 -295.856561 
L 522.098395 -303.052657 
L 537.822548 -305.535809 
L 553.5467 -314.374041 
L 569.270853 -287.203497 
L 584.995005 -289.44088 
L 600.719158 -297.65893 
L 616.44331 -289.346886 
L 632.167463 -309.684743 
L 647.891615 -295.085204 
L 663.615768 -298.148551 
L 679.339921 -279.194275 
L 695.064073 -285.429392 
L 710.788226 -274.421178 
L 726.512378 -284.881184 
L 742.236531 -285.052063 
L 757.960683 -285.593209 
L 773.684836 -268.40275 
L 773.684836 -327.080041 
L 773.684836 -327.080041 
L 757.960683 -328.417069 
L 742.236531 -330.422887 
L 726.512378 -342.488656 
L 710.788226 -332.694947 
L 695.064073 -351.973177 
L 679.339921 -339.377334 
L 663.615768 -349.558654 
L 647.891615 -359.275629 
L 632.167463 -362.586412 
L 616.44331 -353.474704 
L 600.719158 -358.218786 
L 584.995005 -363.319292 
L 569.270853 -344.989119 
L 553.5467 -345.709249 
L 537.822548 -351.764699 
L 522.098395 -352.07183 
L 506.374243 -340.792687 
L 490.65009 -348.889153 
z
" style="stroke: #ae9d31; stroke-opacity: 0.2"/>
    </defs>
    <g clip-path="url(#pa1dd51ad70)">
     <use xlink:href="#mc465795632" x="0" y="421.617812" style="fill: #ae9d31; fill-opacity: 0.2; stroke: #ae9d31; stroke-opacity: 0.2"/>
    </g>
   </g>
   <g id="PolyCollection_8">
    <defs>
     <path id="m0e982c8e84" d="M 490.65009 -352.895204 
L 490.65009 -319.815339 
L 506.374243 -320.242842 
L 522.098395 -344.143666 
L 537.822548 -321.187873 
L 553.5467 -336.193974 
L 569.270853 -329.968433 
L 584.995005 -328.376024 
L 600.719158 -323.193862 
L 616.44331 -332.102067 
L 632.167463 -323.121709 
L 647.891615 -340.931102 
L 663.615768 -340.690662 
L 679.339921 -328.933318 
L 695.064073 -335.470135 
L 710.788226 -322.065513 
L 726.512378 -326.459548 
L 742.236531 -328.503499 
L 757.960683 -305.418387 
L 773.684836 -314.207846 
L 773.684836 -359.716181 
L 773.684836 -359.716181 
L 757.960683 -349.203946 
L 742.236531 -362.002169 
L 726.512378 -360.00801 
L 710.788226 -356.576738 
L 695.064073 -359.157475 
L 679.339921 -350.713276 
L 663.615768 -360.119751 
L 647.891615 -345.745672 
L 632.167463 -366.348288 
L 616.44331 -359.826411 
L 600.719158 -358.011477 
L 584.995005 -360.016424 
L 569.270853 -357.492953 
L 553.5467 -356.393623 
L 537.822548 -349.147803 
L 522.098395 -356.133193 
L 506.374243 -355.313174 
L 490.65009 -352.895204 
z
" style="stroke: #33b07a; stroke-opacity: 0.2"/>
    </defs>
    <g clip-path="url(#pa1dd51ad70)">
     <use xlink:href="#m0e982c8e84" x="0" y="421.617812" style="fill: #33b07a; fill-opacity: 0.2; stroke: #33b07a; stroke-opacity: 0.2"/>
    </g>
   </g>
   <g id="PolyCollection_9">
    <defs>
     <path id="m076c4b8df0" d="M 490.65009 -355.196286 
L 490.65009 -334.775901 
L 506.374243 -332.747471 
L 522.098395 -328.121962 
L 537.822548 -315.911596 
L 553.5467 -333.699498 
L 569.270853 -331.73677 
L 584.995005 -334.760617 
L 600.719158 -337.306956 
L 616.44331 -326.732028 
L 632.167463 -334.301672 
L 647.891615 -335.108746 
L 663.615768 -345.646729 
L 679.339921 -337.604243 
L 695.064073 -336.813106 
L 710.788226 -336.998262 
L 726.512378 -338.831009 
L 742.236531 -339.132316 
L 757.960683 -339.91191 
L 773.684836 -336.837808 
L 773.684836 -355.35217 
L 773.684836 -355.35217 
L 757.960683 -356.766192 
L 742.236531 -361.008535 
L 726.512378 -352.699923 
L 710.788226 -350.253909 
L 695.064073 -352.091974 
L 679.339921 -352.284259 
L 663.615768 -354.389514 
L 647.891615 -351.923694 
L 632.167463 -349.36211 
L 616.44331 -354.682563 
L 600.719158 -348.051652 
L 584.995005 -352.282339 
L 569.270853 -359.407133 
L 553.5467 -354.316326 
L 537.822548 -338.543402 
L 522.098395 -356.69265 
L 506.374243 -362.82168 
L 490.65009 -355.196286 
z
" style="stroke: #38a9c5; stroke-opacity: 0.2"/>
    </defs>
    <g clip-path="url(#pa1dd51ad70)">
     <use xlink:href="#m076c4b8df0" x="0" y="421.617812" style="fill: #38a9c5; fill-opacity: 0.2; stroke: #38a9c5; stroke-opacity: 0.2"/>
    </g>
   </g>
   <g id="PolyCollection_10">
    <defs>
     <path id="m4b052f9438" d="M 490.65009 -348.032687 
L 490.65009 -309.173692 
L 506.374243 -305.25643 
L 522.098395 -313.331018 
L 537.822548 -317.482191 
L 553.5467 -326.123746 
L 569.270853 -320.890545 
L 584.995005 -322.947373 
L 600.719158 -329.317563 
L 616.44331 -331.05164 
L 632.167463 -327.902452 
L 647.891615 -340.813078 
L 663.615768 -335.486642 
L 679.339921 -333.260708 
L 695.064073 -334.107528 
L 710.788226 -338.472969 
L 726.512378 -341.402628 
L 742.236531 -338.579558 
L 757.960683 -335.851077 
L 773.684836 -343.4905 
L 773.684836 -372.280008 
L 773.684836 -372.280008 
L 757.960683 -374.081851 
L 742.236531 -369.627179 
L 726.512378 -349.061197 
L 710.788226 -365.591015 
L 695.064073 -362.539173 
L 679.339921 -364.881937 
L 663.615768 -368.713314 
L 647.891615 -358.156095 
L 632.167463 -360.741091 
L 616.44331 -366.222743 
L 600.719158 -358.708741 
L 584.995005 -359.659817 
L 569.270853 -360.712302 
L 553.5467 -357.958503 
L 537.822548 -349.11872 
L 522.098395 -347.955387 
L 506.374243 -341.990465 
L 490.65009 -348.032687 
z
" style="stroke: #cc7af4; stroke-opacity: 0.2"/>
    </defs>
    <g clip-path="url(#pa1dd51ad70)">
     <use xlink:href="#m4b052f9438" x="0" y="421.617812" style="fill: #cc7af4; fill-opacity: 0.2; stroke: #cc7af4; stroke-opacity: 0.2"/>
    </g>
   </g>
   <g id="line2d_16">
    <path d="M 490.65009 78.718814 
L 506.374243 94.437396 
L 522.098395 99.370074 
L 537.822548 92.460148 
L 553.5467 93.882939 
L 569.270853 96.142664 
L 584.995005 89.41581 
L 600.719158 90.849081 
L 616.44331 95.368495 
L 632.167463 87.909333 
L 647.891615 93.867239 
L 663.615768 96.796508 
L 679.339921 98.590665 
L 695.064073 97.931601 
L 710.788226 94.097412 
L 726.512378 99.108519 
L 742.236531 98.486076 
L 757.960683 94.740795 
L 773.684836 91.26229 
" clip-path="url(#pa1dd51ad70)" style="fill: none; stroke: #f77189; stroke-width: 1.5; stroke-linecap: round"/>
   </g>
   <g id="line2d_17">
    <path d="M 490.65009 103.905189 
L 506.374243 103.293189 
L 522.098395 94.055569 
L 537.822548 92.967559 
L 553.5467 91.576168 
L 569.270853 105.521504 
L 584.995005 95.237726 
L 600.719158 93.678954 
L 616.44331 100.207017 
L 632.167463 85.482235 
L 647.891615 94.437396 
L 663.615768 97.76421 
L 679.339921 112.332008 
L 695.064073 102.916528 
L 710.788226 118.05975 
L 726.512378 107.932892 
L 742.236531 113.880338 
L 757.960683 114.612673 
L 773.684836 123.876417 
" clip-path="url(#pa1dd51ad70)" style="fill: none; stroke: #ae9d31; stroke-width: 1.5; stroke-linecap: round"/>
   </g>
   <g id="line2d_18">
    <path d="M 490.65009 85.262541 
L 506.374243 83.839804 
L 522.098395 71.479383 
L 537.822548 86.449974 
L 553.5467 75.324014 
L 569.270853 77.88712 
L 584.995005 77.421588 
L 600.719158 81.015143 
L 616.44331 75.653574 
L 632.167463 76.882814 
L 647.891615 78.279426 
L 663.615768 71.212606 
L 679.339921 81.794515 
L 695.064073 74.304007 
L 710.788226 82.296687 
L 726.512378 78.384033 
L 742.236531 76.364979 
L 757.960683 94.306646 
L 773.684836 84.655799 
" clip-path="url(#pa1dd51ad70)" style="fill: none; stroke: #33b07a; stroke-width: 1.5; stroke-linecap: round"/>
   </g>
   <g id="line2d_19">
    <path d="M 490.65009 76.631719 
L 506.374243 73.833237 
L 522.098395 79.210506 
L 537.822548 94.390313 
L 553.5467 77.6099 
L 569.270853 76.045861 
L 584.995005 78.096335 
L 600.719158 78.938508 
L 616.44331 80.910517 
L 632.167463 79.785922 
L 647.891615 78.101593 
L 663.615768 71.599691 
L 679.339921 76.673562 
L 695.064073 77.165272 
L 710.788226 77.991727 
L 726.512378 75.852346 
L 742.236531 71.547387 
L 757.960683 73.278761 
L 773.684836 75.522823 
" clip-path="url(#pa1dd51ad70)" style="fill: none; stroke: #38a9c5; stroke-width: 1.5; stroke-linecap: round"/>
   </g>
   <g id="line2d_20">
    <path d="M 490.65009 93.014623 
L 506.374243 97.994365 
L 522.098395 90.97461 
L 537.822548 88.317357 
L 553.5467 79.576688 
L 569.270853 80.816389 
L 584.995005 80.314217 
L 600.719158 77.604661 
L 616.44331 72.980621 
L 632.167463 77.296041 
L 647.891615 72.133226 
L 663.615768 69.517835 
L 679.339921 72.54649 
L 695.064073 73.294462 
L 710.788226 69.585821 
L 726.512378 76.3859 
L 742.236531 67.514444 
L 757.960683 66.651349 
L 773.684836 63.732559 
" clip-path="url(#pa1dd51ad70)" style="fill: none; stroke: #cc7af4; stroke-width: 1.5; stroke-linecap: round"/>
   </g>
   <g id="line2d_21"/>
   <g id="line2d_22"/>
   <g id="line2d_23"/>
   <g id="line2d_24"/>
   <g id="line2d_25"/>
   <g id="patch_7">
    <path d="M 474.925937 176.538125 
L 474.925937 22.318125 
" style="fill: none; stroke: #262626; stroke-width: 1.25; stroke-linejoin: miter; stroke-linecap: square"/>
   </g>
   <g id="patch_8">
    <path d="M 474.925937 176.538125 
L 846.015937 176.538125 
" style="fill: none; stroke: #262626; stroke-width: 1.25; stroke-linejoin: miter; stroke-linecap: square"/>
   </g>
   <g id="text_39">
    <!-- Labeled Size: 500 -->
    <g style="fill: #262626" transform="translate(607.177812 16.318125) scale(0.12 -0.12)">
     <use xlink:href="#DejaVuSans-4c"/>
     <use xlink:href="#DejaVuSans-61" x="55.712891"/>
     <use xlink:href="#DejaVuSans-62" x="116.992188"/>
     <use xlink:href="#DejaVuSans-65" x="180.46875"/>
     <use xlink:href="#DejaVuSans-6c" x="241.992188"/>
     <use xlink:href="#DejaVuSans-65" x="269.775391"/>
     <use xlink:href="#DejaVuSans-64" x="331.298828"/>
     <use xlink:href="#DejaVuSans-20" x="394.775391"/>
     <use xlink:href="#DejaVuSans-53" x="426.5625"/>
     <use xlink:href="#DejaVuSans-69" x="490.039062"/>
     <use xlink:href="#DejaVuSans-7a" x="517.822266"/>
     <use xlink:href="#DejaVuSans-65" x="570.3125"/>
     <use xlink:href="#DejaVuSans-3a" x="631.835938"/>
     <use xlink:href="#DejaVuSans-20" x="665.527344"/>
     <use xlink:href="#DejaVuSans-35" x="697.314453"/>
     <use xlink:href="#DejaVuSans-30" x="760.9375"/>
     <use xlink:href="#DejaVuSans-30" x="824.560547"/>
    </g>
   </g>
   <g id="legend_2">
    <g id="patch_9">
     <path d="M 778.62375 111.847813 
L 838.315937 111.847813 
Q 840.515937 111.847813 840.515937 109.647813 
L 840.515937 30.018125 
Q 840.515937 27.818125 838.315937 27.818125 
L 778.62375 27.818125 
Q 776.42375 27.818125 776.42375 30.018125 
L 776.42375 109.647813 
Q 776.42375 111.847813 778.62375 111.847813 
z
" style="fill: #ffffff; opacity: 0.8; stroke: #cccccc; stroke-linejoin: miter"/>
    </g>
    <g id="line2d_26">
     <path d="M 780.82375 36.726406 
L 791.82375 36.726406 
L 802.82375 36.726406 
" style="fill: none; stroke: #f77189; stroke-width: 1.5; stroke-linecap: round"/>
    </g>
    <g id="text_40">
     <!-- 0.05 -->
     <g style="fill: #262626" transform="translate(811.62375 40.576406) scale(0.11 -0.11)">
      <use xlink:href="#DejaVuSans-30"/>
      <use xlink:href="#DejaVuSans-2e" x="63.623047"/>
      <use xlink:href="#DejaVuSans-30" x="95.410156"/>
      <use xlink:href="#DejaVuSans-35" x="159.033203"/>
     </g>
    </g>
    <g id="line2d_27">
     <path d="M 780.82375 52.872344 
L 791.82375 52.872344 
L 802.82375 52.872344 
" style="fill: none; stroke: #ae9d31; stroke-width: 1.5; stroke-linecap: round"/>
    </g>
    <g id="text_41">
     <!-- 0.25 -->
     <g style="fill: #262626" transform="translate(811.62375 56.722344) scale(0.11 -0.11)">
      <use xlink:href="#DejaVuSans-30"/>
      <use xlink:href="#DejaVuSans-2e" x="63.623047"/>
      <use xlink:href="#DejaVuSans-32" x="95.410156"/>
      <use xlink:href="#DejaVuSans-35" x="159.033203"/>
     </g>
    </g>
    <g id="line2d_28">
     <path d="M 780.82375 69.018281 
L 791.82375 69.018281 
L 802.82375 69.018281 
" style="fill: none; stroke: #33b07a; stroke-width: 1.5; stroke-linecap: round"/>
    </g>
    <g id="text_42">
     <!-- 0.5 -->
     <g style="fill: #262626" transform="translate(811.62375 72.868281) scale(0.11 -0.11)">
      <use xlink:href="#DejaVuSans-30"/>
      <use xlink:href="#DejaVuSans-2e" x="63.623047"/>
      <use xlink:href="#DejaVuSans-35" x="95.410156"/>
     </g>
    </g>
    <g id="line2d_29">
     <path d="M 780.82375 85.164219 
L 791.82375 85.164219 
L 802.82375 85.164219 
" style="fill: none; stroke: #38a9c5; stroke-width: 1.5; stroke-linecap: round"/>
    </g>
    <g id="text_43">
     <!-- 0.75 -->
     <g style="fill: #262626" transform="translate(811.62375 89.014219) scale(0.11 -0.11)">
      <use xlink:href="#DejaVuSans-30"/>
      <use xlink:href="#DejaVuSans-2e" x="63.623047"/>
      <use xlink:href="#DejaVuSans-37" x="95.410156"/>
      <use xlink:href="#DejaVuSans-35" x="159.033203"/>
     </g>
    </g>
    <g id="line2d_30">
     <path d="M 780.82375 101.310156 
L 791.82375 101.310156 
L 802.82375 101.310156 
" style="fill: none; stroke: #cc7af4; stroke-width: 1.5; stroke-linecap: round"/>
    </g>
    <g id="text_44">
     <!-- 1.0 -->
     <g style="fill: #262626" transform="translate(811.62375 105.160156) scale(0.11 -0.11)">
      <use xlink:href="#DejaVuSans-31"/>
      <use xlink:href="#DejaVuSans-2e" x="63.623047"/>
      <use xlink:href="#DejaVuSans-30" x="95.410156"/>
     </g>
    </g>
   </g>
  </g>
  <g id="axes_3">
   <g id="patch_10">
    <path d="M 56.805938 378.658125 
L 427.895937 378.658125 
L 427.895937 224.438125 
L 56.805938 224.438125 
L 56.805938 378.658125 
z
" style="fill: none"/>
   </g>
   <g id="matplotlib.axis_5">
    <g id="xtick_21">
     <g id="text_45">
      <!-- 2 -->
      <g style="fill: #262626" transform="translate(69.030715 396.516406) scale(0.11 -0.11)">
       <use xlink:href="#DejaVuSans-32"/>
      </g>
     </g>
    </g>
    <g id="xtick_22">
     <g id="text_46">
      <!-- 4 -->
      <g style="fill: #262626" transform="translate(100.47902 396.516406) scale(0.11 -0.11)">
       <use xlink:href="#DejaVuSans-34"/>
      </g>
     </g>
    </g>
    <g id="xtick_23">
     <g id="text_47">
      <!-- 6 -->
      <g style="fill: #262626" transform="translate(131.927325 396.516406) scale(0.11 -0.11)">
       <use xlink:href="#DejaVuSans-36"/>
      </g>
     </g>
    </g>
    <g id="xtick_24">
     <g id="text_48">
      <!-- 8 -->
      <g style="fill: #262626" transform="translate(163.37563 396.516406) scale(0.11 -0.11)">
       <use xlink:href="#DejaVuSans-38"/>
      </g>
     </g>
    </g>
    <g id="xtick_25">
     <g id="text_49">
      <!-- 10 -->
      <g style="fill: #262626" transform="translate(191.32456 396.516406) scale(0.11 -0.11)">
       <use xlink:href="#DejaVuSans-31"/>
       <use xlink:href="#DejaVuSans-30" x="63.623047"/>
      </g>
     </g>
    </g>
    <g id="xtick_26">
     <g id="text_50">
      <!-- 12 -->
      <g style="fill: #262626" transform="translate(222.772865 396.516406) scale(0.11 -0.11)">
       <use xlink:href="#DejaVuSans-31"/>
       <use xlink:href="#DejaVuSans-32" x="63.623047"/>
      </g>
     </g>
    </g>
    <g id="xtick_27">
     <g id="text_51">
      <!-- 14 -->
      <g style="fill: #262626" transform="translate(254.221171 396.516406) scale(0.11 -0.11)">
       <use xlink:href="#DejaVuSans-31"/>
       <use xlink:href="#DejaVuSans-34" x="63.623047"/>
      </g>
     </g>
    </g>
    <g id="xtick_28">
     <g id="text_52">
      <!-- 16 -->
      <g style="fill: #262626" transform="translate(285.669476 396.516406) scale(0.11 -0.11)">
       <use xlink:href="#DejaVuSans-31"/>
       <use xlink:href="#DejaVuSans-36" x="63.623047"/>
      </g>
     </g>
    </g>
    <g id="xtick_29">
     <g id="text_53">
      <!-- 18 -->
      <g style="fill: #262626" transform="translate(317.117781 396.516406) scale(0.11 -0.11)">
       <use xlink:href="#DejaVuSans-31"/>
       <use xlink:href="#DejaVuSans-38" x="63.623047"/>
      </g>
     </g>
    </g>
    <g id="xtick_30">
     <g id="text_54">
      <!-- 20 -->
      <g style="fill: #262626" transform="translate(348.566086 396.516406) scale(0.11 -0.11)">
       <use xlink:href="#DejaVuSans-32"/>
       <use xlink:href="#DejaVuSans-30" x="63.623047"/>
      </g>
     </g>
    </g>
    <g id="text_55">
     <!-- Iteration -->
     <g style="fill: #262626" transform="translate(216.900625 411.922187) scale(0.12 -0.12)">
      <defs>
       <path id="DejaVuSans-49" d="M 628 4666 
L 1259 4666 
L 1259 0 
L 628 0 
L 628 4666 
z
" transform="scale(0.015625)"/>
       <path id="DejaVuSans-74" d="M 1172 4494 
L 1172 3500 
L 2356 3500 
L 2356 3053 
L 1172 3053 
L 1172 1153 
Q 1172 725 1289 603 
Q 1406 481 1766 481 
L 2356 481 
L 2356 0 
L 1766 0 
Q 1100 0 847 248 
Q 594 497 594 1153 
L 594 3053 
L 172 3053 
L 172 3500 
L 594 3500 
L 594 4494 
L 1172 4494 
z
" transform="scale(0.015625)"/>
       <path id="DejaVuSans-6f" d="M 1959 3097 
Q 1497 3097 1228 2736 
Q 959 2375 959 1747 
Q 959 1119 1226 758 
Q 1494 397 1959 397 
Q 2419 397 2687 759 
Q 2956 1122 2956 1747 
Q 2956 2369 2687 2733 
Q 2419 3097 1959 3097 
z
M 1959 3584 
Q 2709 3584 3137 3096 
Q 3566 2609 3566 1747 
Q 3566 888 3137 398 
Q 2709 -91 1959 -91 
Q 1206 -91 779 398 
Q 353 888 353 1747 
Q 353 2609 779 3096 
Q 1206 3584 1959 3584 
z
" transform="scale(0.015625)"/>
       <path id="DejaVuSans-6e" d="M 3513 2113 
L 3513 0 
L 2938 0 
L 2938 2094 
Q 2938 2591 2744 2837 
Q 2550 3084 2163 3084 
Q 1697 3084 1428 2787 
Q 1159 2491 1159 1978 
L 1159 0 
L 581 0 
L 581 3500 
L 1159 3500 
L 1159 2956 
Q 1366 3272 1645 3428 
Q 1925 3584 2291 3584 
Q 2894 3584 3203 3211 
Q 3513 2838 3513 2113 
z
" transform="scale(0.015625)"/>
      </defs>
      <use xlink:href="#DejaVuSans-49"/>
      <use xlink:href="#DejaVuSans-74" x="29.492188"/>
      <use xlink:href="#DejaVuSans-65" x="68.701172"/>
      <use xlink:href="#DejaVuSans-72" x="130.224609"/>
      <use xlink:href="#DejaVuSans-61" x="171.337891"/>
      <use xlink:href="#DejaVuSans-74" x="232.617188"/>
      <use xlink:href="#DejaVuSans-69" x="271.826172"/>
      <use xlink:href="#DejaVuSans-6f" x="299.609375"/>
      <use xlink:href="#DejaVuSans-6e" x="360.791016"/>
     </g>
    </g>
   </g>
   <g id="matplotlib.axis_6">
    <g id="ytick_12">
     <g id="text_56">
      <!-- 0.50 -->
      <g style="fill: #262626" transform="translate(22.81375 382.837266) scale(0.11 -0.11)">
       <use xlink:href="#DejaVuSans-30"/>
       <use xlink:href="#DejaVuSans-2e" x="63.623047"/>
       <use xlink:href="#DejaVuSans-35" x="95.410156"/>
       <use xlink:href="#DejaVuSans-30" x="159.033203"/>
      </g>
     </g>
    </g>
    <g id="ytick_13">
     <g id="text_57">
      <!-- 0.52 -->
      <g style="fill: #262626" transform="translate(22.81375 351.993266) scale(0.11 -0.11)">
       <use xlink:href="#DejaVuSans-30"/>
       <use xlink:href="#DejaVuSans-2e" x="63.623047"/>
       <use xlink:href="#DejaVuSans-35" x="95.410156"/>
       <use xlink:href="#DejaVuSans-32" x="159.033203"/>
      </g>
     </g>
    </g>
    <g id="ytick_14">
     <g id="text_58">
      <!-- 0.54 -->
      <g style="fill: #262626" transform="translate(22.81375 321.149266) scale(0.11 -0.11)">
       <use xlink:href="#DejaVuSans-30"/>
       <use xlink:href="#DejaVuSans-2e" x="63.623047"/>
       <use xlink:href="#DejaVuSans-35" x="95.410156"/>
       <use xlink:href="#DejaVuSans-34" x="159.033203"/>
      </g>
     </g>
    </g>
    <g id="ytick_15">
     <g id="text_59">
      <!-- 0.56 -->
      <g style="fill: #262626" transform="translate(22.81375 290.305266) scale(0.11 -0.11)">
       <use xlink:href="#DejaVuSans-30"/>
       <use xlink:href="#DejaVuSans-2e" x="63.623047"/>
       <use xlink:href="#DejaVuSans-35" x="95.410156"/>
       <use xlink:href="#DejaVuSans-36" x="159.033203"/>
      </g>
     </g>
    </g>
    <g id="ytick_16">
     <g id="text_60">
      <!-- 0.58 -->
      <g style="fill: #262626" transform="translate(22.81375 259.461266) scale(0.11 -0.11)">
       <use xlink:href="#DejaVuSans-30"/>
       <use xlink:href="#DejaVuSans-2e" x="63.623047"/>
       <use xlink:href="#DejaVuSans-35" x="95.410156"/>
       <use xlink:href="#DejaVuSans-38" x="159.033203"/>
      </g>
     </g>
    </g>
    <g id="ytick_17">
     <g id="text_61">
      <!-- 0.60 -->
      <g style="fill: #262626" transform="translate(22.81375 228.617266) scale(0.11 -0.11)">
       <use xlink:href="#DejaVuSans-30"/>
       <use xlink:href="#DejaVuSans-2e" x="63.623047"/>
       <use xlink:href="#DejaVuSans-36" x="95.410156"/>
       <use xlink:href="#DejaVuSans-30" x="159.033203"/>
      </g>
     </g>
    </g>
    <g id="text_62">
     <!-- Accuracy -->
     <g style="fill: #262626" transform="translate(16.318125 328.941875) rotate(-90) scale(0.12 -0.12)">
      <use xlink:href="#DejaVuSans-41"/>
      <use xlink:href="#DejaVuSans-63" x="66.658203"/>
      <use xlink:href="#DejaVuSans-63" x="121.638672"/>
      <use xlink:href="#DejaVuSans-75" x="176.619141"/>
      <use xlink:href="#DejaVuSans-72" x="239.998047"/>
      <use xlink:href="#DejaVuSans-61" x="281.111328"/>
      <use xlink:href="#DejaVuSans-63" x="342.390625"/>
      <use xlink:href="#DejaVuSans-79" x="397.371094"/>
     </g>
    </g>
   </g>
   <g id="PolyCollection_11">
    <defs>
     <path id="m4220deee7b" d="M 72.53009 -131.425812 
L 72.53009 -120.833369 
L 88.254243 -99.972948 
L 103.978395 -100.61168 
L 119.702548 -111.649301 
L 135.4267 -107.211804 
L 151.150853 -111.232131 
L 166.875005 -106.87035 
L 182.599158 -108.385819 
L 198.32331 -108.937798 
L 214.047463 -104.030382 
L 229.771615 -103.832053 
L 245.495768 -112.77388 
L 261.219921 -105.817305 
L 276.944073 -113.397681 
L 292.668226 -110.875597 
L 308.392378 -112.460491 
L 324.116531 -106.158587 
L 339.840683 -105.541597 
L 355.564836 -106.770644 
L 355.564836 -130.319191 
L 355.564836 -130.319191 
L 339.840683 -127.656506 
L 324.116531 -121.53668 
L 308.392378 -123.666807 
L 292.668226 -129.582859 
L 276.944073 -123.378295 
L 261.219921 -133.396228 
L 245.495768 -147.059477 
L 229.771615 -133.257781 
L 214.047463 -132.096953 
L 198.32331 -131.782232 
L 182.599158 -137.784651 
L 166.875005 -129.54996 
L 151.150853 -142.387021 
L 135.4267 -140.486083 
L 119.702548 -137.209859 
L 103.978395 -124.279884 
L 88.254243 -133.905122 
L 72.53009 -131.425812 
z
" style="stroke: #f77189; stroke-opacity: 0.2"/>
    </defs>
    <g clip-path="url(#p50b6967102)">
     <use xlink:href="#m4220deee7b" x="0" y="421.617812" style="fill: #f77189; fill-opacity: 0.2; stroke: #f77189; stroke-opacity: 0.2"/>
    </g>
   </g>
   <g id="PolyCollection_12">
    <defs>
     <path id="ma743adf90b" d="M 72.53009 -132.081014 
L 72.53009 -102.843205 
L 88.254243 -121.489836 
L 103.978395 -126.875832 
L 119.702548 -125.854585 
L 135.4267 -125.314629 
L 151.150853 -117.229874 
L 166.875005 -124.784969 
L 182.599158 -124.526598 
L 198.32331 -122.058225 
L 214.047463 -114.248933 
L 229.771615 -123.251162 
L 245.495768 -117.110142 
L 261.219921 -119.638986 
L 276.944073 -103.211301 
L 292.668226 -110.899423 
L 308.392378 -109.627663 
L 324.116531 -111.669862 
L 339.840683 -97.398849 
L 355.564836 -108.481699 
L 355.564836 -120.249312 
L 355.564836 -120.249312 
L 339.840683 -127.963504 
L 324.116531 -126.581209 
L 308.392378 -129.836966 
L 292.668226 -125.897474 
L 276.944073 -120.581792 
L 261.219921 -124.972739 
L 245.495768 -137.931821 
L 229.771615 -134.751471 
L 214.047463 -141.075488 
L 198.32331 -137.199771 
L 182.599158 -142.106838 
L 166.875005 -131.669324 
L 151.150853 -141.599139 
L 135.4267 -139.791427 
L 119.702548 -144.71239 
L 103.978395 -140.531773 
L 88.254243 -148.993452 
L 72.53009 -132.081014 
z
" style="stroke: #ae9d31; stroke-opacity: 0.2"/>
    </defs>
    <g clip-path="url(#p50b6967102)">
     <use xlink:href="#ma743adf90b" x="0" y="421.617812" style="fill: #ae9d31; fill-opacity: 0.2; stroke: #ae9d31; stroke-opacity: 0.2"/>
    </g>
   </g>
   <g id="PolyCollection_13">
    <defs>
     <path id="mdc32a35a68" d="M 72.53009 -144.543133 
L 72.53009 -120.154897 
L 88.254243 -115.306169 
L 103.978395 -127.045737 
L 119.702548 -131.582475 
L 135.4267 -130.365818 
L 151.150853 -126.31108 
L 166.875005 -121.398237 
L 182.599158 -116.683525 
L 198.32331 -134.255588 
L 214.047463 -130.974567 
L 229.771615 -136.764539 
L 245.495768 -120.479174 
L 261.219921 -124.356688 
L 276.944073 -123.434675 
L 292.668226 -125.789048 
L 308.392378 -129.943256 
L 324.116531 -130.051613 
L 339.840683 -134.411407 
L 355.564836 -125.050948 
L 355.564836 -146.373882 
L 355.564836 -146.373882 
L 339.840683 -144.880573 
L 324.116531 -140.944307 
L 308.392378 -144.389885 
L 292.668226 -143.784063 
L 276.944073 -148.973613 
L 261.219921 -146.858926 
L 245.495768 -146.06006 
L 229.771615 -150.928145 
L 214.047463 -143.934007 
L 198.32331 -150.800729 
L 182.599158 -141.999112 
L 166.875005 -131.237531 
L 151.150853 -147.718681 
L 135.4267 -151.416043 
L 119.702548 -148.776613 
L 103.978395 -144.368687 
L 88.254243 -132.590527 
L 72.53009 -144.543133 
z
" style="stroke: #33b07a; stroke-opacity: 0.2"/>
    </defs>
    <g clip-path="url(#p50b6967102)">
     <use xlink:href="#mdc32a35a68" x="0" y="421.617812" style="fill: #33b07a; fill-opacity: 0.2; stroke: #33b07a; stroke-opacity: 0.2"/>
    </g>
   </g>
   <g id="PolyCollection_14">
    <defs>
     <path id="m4aeebef60e" d="M 72.53009 -130.777031 
L 72.53009 -118.594761 
L 88.254243 -107.367732 
L 103.978395 -116.42766 
L 119.702548 -116.069155 
L 135.4267 -130.438753 
L 151.150853 -125.830677 
L 166.875005 -126.235673 
L 182.599158 -136.906284 
L 198.32331 -132.748606 
L 214.047463 -126.557302 
L 229.771615 -134.219412 
L 245.495768 -130.628446 
L 261.219921 -130.310087 
L 276.944073 -128.144981 
L 292.668226 -132.098545 
L 308.392378 -134.999089 
L 324.116531 -139.12091 
L 339.840683 -126.778624 
L 355.564836 -135.027193 
L 355.564836 -147.089448 
L 355.564836 -147.089448 
L 339.840683 -154.145381 
L 324.116531 -152.861015 
L 308.392378 -150.015384 
L 292.668226 -147.946647 
L 276.944073 -149.441767 
L 261.219921 -154.788109 
L 245.495768 -147.115269 
L 229.771615 -142.457158 
L 214.047463 -146.018358 
L 198.32331 -148.813524 
L 182.599158 -151.152545 
L 166.875005 -146.486437 
L 151.150853 -146.033541 
L 135.4267 -148.173223 
L 119.702548 -146.892244 
L 103.978395 -142.286303 
L 88.254243 -132.232868 
L 72.53009 -130.777031 
z
" style="stroke: #38a9c5; stroke-opacity: 0.2"/>
    </defs>
    <g clip-path="url(#p50b6967102)">
     <use xlink:href="#m4aeebef60e" x="0" y="421.617812" style="fill: #38a9c5; fill-opacity: 0.2; stroke: #38a9c5; stroke-opacity: 0.2"/>
    </g>
   </g>
   <g id="PolyCollection_15">
    <defs>
     <path id="m288f5f2d3d" d="M 72.53009 -136.420421 
L 72.53009 -105.690981 
L 88.254243 -124.990274 
L 103.978395 -125.092845 
L 119.702548 -121.057666 
L 135.4267 -128.320032 
L 151.150853 -126.538522 
L 166.875005 -126.529825 
L 182.599158 -133.110284 
L 198.32331 -131.855993 
L 214.047463 -138.521592 
L 229.771615 -125.076824 
L 245.495768 -127.156956 
L 261.219921 -133.311911 
L 276.944073 -128.718173 
L 292.668226 -132.991602 
L 308.392378 -127.283599 
L 324.116531 -132.15167 
L 339.840683 -132.670485 
L 355.564836 -128.397699 
L 355.564836 -145.255474 
L 355.564836 -145.255474 
L 339.840683 -148.588301 
L 324.116531 -145.131697 
L 308.392378 -146.923976 
L 292.668226 -149.229647 
L 276.944073 -142.256826 
L 261.219921 -148.898895 
L 245.495768 -150.628602 
L 229.771615 -151.631147 
L 214.047463 -157.14285 
L 198.32331 -152.645885 
L 182.599158 -148.389154 
L 166.875005 -144.685827 
L 151.150853 -144.572485 
L 135.4267 -151.149836 
L 119.702548 -156.832499 
L 103.978395 -147.692067 
L 88.254243 -138.588364 
L 72.53009 -136.420421 
z
" style="stroke: #cc7af4; stroke-opacity: 0.2"/>
    </defs>
    <g clip-path="url(#p50b6967102)">
     <use xlink:href="#m288f5f2d3d" x="0" y="421.617812" style="fill: #cc7af4; fill-opacity: 0.2; stroke: #cc7af4; stroke-opacity: 0.2"/>
    </g>
   </g>
   <g id="line2d_31">
    <path d="M 72.53009 295.488222 
L 88.254243 304.678777 
L 103.978395 309.17203 
L 119.702548 297.188233 
L 135.4267 297.768869 
L 151.150853 294.808236 
L 166.875005 303.407658 
L 182.599158 298.532578 
L 198.32331 301.257798 
L 214.047463 303.554145 
L 229.771615 303.072895 
L 245.495768 291.701134 
L 261.219921 302.011046 
L 276.944073 303.229825 
L 292.668226 301.388585 
L 308.392378 303.554163 
L 324.116531 307.770179 
L 339.840683 305.018761 
L 355.564836 303.072895 
" clip-path="url(#p50b6967102)" style="fill: none; stroke: #f77189; stroke-width: 1.5; stroke-linecap: round"/>
   </g>
   <g id="line2d_32">
    <path d="M 72.53009 304.155703 
L 88.254243 286.376168 
L 103.978395 287.91401 
L 119.702548 286.334325 
L 135.4267 289.064785 
L 151.150853 292.203306 
L 166.875005 293.390666 
L 182.599158 288.301094 
L 198.32331 291.988814 
L 214.047463 293.955602 
L 229.771615 292.616496 
L 245.495768 294.096831 
L 261.219921 299.31195 
L 276.944073 309.721266 
L 292.668226 303.219364 
L 308.392378 301.885498 
L 324.116531 302.492277 
L 339.840683 308.936636 
L 355.564836 307.252307 
" clip-path="url(#p50b6967102)" style="fill: none; stroke: #ae9d31; stroke-width: 1.5; stroke-linecap: round"/>
   </g>
   <g id="line2d_33">
    <path d="M 72.53009 289.268797 
L 88.254243 297.669464 
L 103.978395 285.9106 
L 119.702548 281.438269 
L 135.4267 280.726882 
L 151.150853 284.602932 
L 166.875005 295.299928 
L 182.599158 292.276494 
L 198.32331 279.089654 
L 214.047463 284.163525 
L 229.771615 277.77147 
L 245.495768 288.348195 
L 261.219921 286.010005 
L 276.944073 285.413668 
L 292.668226 286.831257 
L 308.392378 284.451242 
L 324.116531 286.119852 
L 339.840683 281.971822 
L 355.564836 285.905398 
" clip-path="url(#p50b6967102)" style="fill: none; stroke: #33b07a; stroke-width: 1.5; stroke-linecap: round"/>
   </g>
   <g id="line2d_34">
    <path d="M 72.53009 296.931917 
L 88.254243 301.817512 
L 103.978395 292.260831 
L 119.702548 290.137113 
L 135.4267 282.311825 
L 151.150853 285.685703 
L 166.875005 285.256757 
L 182.599158 277.588398 
L 198.32331 280.836748 
L 214.047463 285.329982 
L 229.771615 283.279527 
L 245.495768 282.745955 
L 261.219921 279.068714 
L 276.944073 282.824438 
L 292.668226 281.595217 
L 308.392378 279.110576 
L 324.116531 275.62685 
L 339.840683 281.15581 
L 355.564836 280.559492 
" clip-path="url(#p50b6967102)" style="fill: none; stroke: #38a9c5; stroke-width: 1.5; stroke-linecap: round"/>
   </g>
   <g id="line2d_35">
    <path d="M 72.53009 300.562111 
L 88.254243 289.828494 
L 103.978395 285.225356 
L 119.702548 282.67273 
L 135.4267 281.882878 
L 151.150853 286.062309 
L 166.875005 286.009987 
L 182.599158 280.868093 
L 198.32331 279.366874 
L 214.047463 273.785592 
L 229.771615 283.263827 
L 245.495768 282.725034 
L 261.219921 280.512409 
L 276.944073 286.130313 
L 292.668226 280.507188 
L 308.392378 284.514025 
L 324.116531 282.976129 
L 339.840683 280.988419 
L 355.564836 284.791226 
" clip-path="url(#p50b6967102)" style="fill: none; stroke: #cc7af4; stroke-width: 1.5; stroke-linecap: round"/>
   </g>
   <g id="line2d_36"/>
   <g id="line2d_37"/>
   <g id="line2d_38"/>
   <g id="line2d_39"/>
   <g id="line2d_40"/>
   <g id="patch_11">
    <path d="M 56.805938 378.658125 
L 56.805938 224.438125 
" style="fill: none; stroke: #262626; stroke-width: 1.25; stroke-linejoin: miter; stroke-linecap: square"/>
   </g>
   <g id="patch_12">
    <path d="M 56.805938 378.658125 
L 427.895937 378.658125 
" style="fill: none; stroke: #262626; stroke-width: 1.25; stroke-linejoin: miter; stroke-linecap: square"/>
   </g>
   <g id="text_63">
    <!-- Labeled Size: 1000 -->
    <g style="fill: #262626" transform="translate(185.240312 218.438125) scale(0.12 -0.12)">
     <use xlink:href="#DejaVuSans-4c"/>
     <use xlink:href="#DejaVuSans-61" x="55.712891"/>
     <use xlink:href="#DejaVuSans-62" x="116.992188"/>
     <use xlink:href="#DejaVuSans-65" x="180.46875"/>
     <use xlink:href="#DejaVuSans-6c" x="241.992188"/>
     <use xlink:href="#DejaVuSans-65" x="269.775391"/>
     <use xlink:href="#DejaVuSans-64" x="331.298828"/>
     <use xlink:href="#DejaVuSans-20" x="394.775391"/>
     <use xlink:href="#DejaVuSans-53" x="426.5625"/>
     <use xlink:href="#DejaVuSans-69" x="490.039062"/>
     <use xlink:href="#DejaVuSans-7a" x="517.822266"/>
     <use xlink:href="#DejaVuSans-65" x="570.3125"/>
     <use xlink:href="#DejaVuSans-3a" x="631.835938"/>
     <use xlink:href="#DejaVuSans-20" x="665.527344"/>
     <use xlink:href="#DejaVuSans-31" x="697.314453"/>
     <use xlink:href="#DejaVuSans-30" x="760.9375"/>
     <use xlink:href="#DejaVuSans-30" x="824.560547"/>
     <use xlink:href="#DejaVuSans-30" x="888.183594"/>
    </g>
   </g>
   <g id="legend_3">
    <g id="patch_13">
     <path d="M 360.50375 313.967812 
L 420.195937 313.967812 
Q 422.395937 313.967812 422.395937 311.767812 
L 422.395937 232.138125 
Q 422.395937 229.938125 420.195937 229.938125 
L 360.50375 229.938125 
Q 358.30375 229.938125 358.30375 232.138125 
L 358.30375 311.767812 
Q 358.30375 313.967812 360.50375 313.967812 
z
" style="fill: #ffffff; opacity: 0.8; stroke: #cccccc; stroke-linejoin: miter"/>
    </g>
    <g id="line2d_41">
     <path d="M 362.70375 238.846406 
L 373.70375 238.846406 
L 384.70375 238.846406 
" style="fill: none; stroke: #f77189; stroke-width: 1.5; stroke-linecap: round"/>
    </g>
    <g id="text_64">
     <!-- 0.05 -->
     <g style="fill: #262626" transform="translate(393.50375 242.696406) scale(0.11 -0.11)">
      <use xlink:href="#DejaVuSans-30"/>
      <use xlink:href="#DejaVuSans-2e" x="63.623047"/>
      <use xlink:href="#DejaVuSans-30" x="95.410156"/>
      <use xlink:href="#DejaVuSans-35" x="159.033203"/>
     </g>
    </g>
    <g id="line2d_42">
     <path d="M 362.70375 254.992344 
L 373.70375 254.992344 
L 384.70375 254.992344 
" style="fill: none; stroke: #ae9d31; stroke-width: 1.5; stroke-linecap: round"/>
    </g>
    <g id="text_65">
     <!-- 0.25 -->
     <g style="fill: #262626" transform="translate(393.50375 258.842344) scale(0.11 -0.11)">
      <use xlink:href="#DejaVuSans-30"/>
      <use xlink:href="#DejaVuSans-2e" x="63.623047"/>
      <use xlink:href="#DejaVuSans-32" x="95.410156"/>
      <use xlink:href="#DejaVuSans-35" x="159.033203"/>
     </g>
    </g>
    <g id="line2d_43">
     <path d="M 362.70375 271.138281 
L 373.70375 271.138281 
L 384.70375 271.138281 
" style="fill: none; stroke: #33b07a; stroke-width: 1.5; stroke-linecap: round"/>
    </g>
    <g id="text_66">
     <!-- 0.5 -->
     <g style="fill: #262626" transform="translate(393.50375 274.988281) scale(0.11 -0.11)">
      <use xlink:href="#DejaVuSans-30"/>
      <use xlink:href="#DejaVuSans-2e" x="63.623047"/>
      <use xlink:href="#DejaVuSans-35" x="95.410156"/>
     </g>
    </g>
    <g id="line2d_44">
     <path d="M 362.70375 287.284219 
L 373.70375 287.284219 
L 384.70375 287.284219 
" style="fill: none; stroke: #38a9c5; stroke-width: 1.5; stroke-linecap: round"/>
    </g>
    <g id="text_67">
     <!-- 0.75 -->
     <g style="fill: #262626" transform="translate(393.50375 291.134219) scale(0.11 -0.11)">
      <use xlink:href="#DejaVuSans-30"/>
      <use xlink:href="#DejaVuSans-2e" x="63.623047"/>
      <use xlink:href="#DejaVuSans-37" x="95.410156"/>
      <use xlink:href="#DejaVuSans-35" x="159.033203"/>
     </g>
    </g>
    <g id="line2d_45">
     <path d="M 362.70375 303.430156 
L 373.70375 303.430156 
L 384.70375 303.430156 
" style="fill: none; stroke: #cc7af4; stroke-width: 1.5; stroke-linecap: round"/>
    </g>
    <g id="text_68">
     <!-- 1.0 -->
     <g style="fill: #262626" transform="translate(393.50375 307.280156) scale(0.11 -0.11)">
      <use xlink:href="#DejaVuSans-31"/>
      <use xlink:href="#DejaVuSans-2e" x="63.623047"/>
      <use xlink:href="#DejaVuSans-30" x="95.410156"/>
     </g>
    </g>
   </g>
  </g>
  <g id="axes_4">
   <g id="patch_14">
    <path d="M 474.925937 378.658125 
L 846.015937 378.658125 
L 846.015937 224.438125 
L 474.925937 224.438125 
L 474.925937 378.658125 
z
" style="fill: none"/>
   </g>
   <g id="matplotlib.axis_7">
    <g id="xtick_31">
     <g id="text_69">
      <!-- 2 -->
      <g style="fill: #262626" transform="translate(487.150715 396.516406) scale(0.11 -0.11)">
       <use xlink:href="#DejaVuSans-32"/>
      </g>
     </g>
    </g>
    <g id="xtick_32">
     <g id="text_70">
      <!-- 4 -->
      <g style="fill: #262626" transform="translate(518.59902 396.516406) scale(0.11 -0.11)">
       <use xlink:href="#DejaVuSans-34"/>
      </g>
     </g>
    </g>
    <g id="xtick_33">
     <g id="text_71">
      <!-- 6 -->
      <g style="fill: #262626" transform="translate(550.047325 396.516406) scale(0.11 -0.11)">
       <use xlink:href="#DejaVuSans-36"/>
      </g>
     </g>
    </g>
    <g id="xtick_34">
     <g id="text_72">
      <!-- 8 -->
      <g style="fill: #262626" transform="translate(581.49563 396.516406) scale(0.11 -0.11)">
       <use xlink:href="#DejaVuSans-38"/>
      </g>
     </g>
    </g>
    <g id="xtick_35">
     <g id="text_73">
      <!-- 10 -->
      <g style="fill: #262626" transform="translate(609.44456 396.516406) scale(0.11 -0.11)">
       <use xlink:href="#DejaVuSans-31"/>
       <use xlink:href="#DejaVuSans-30" x="63.623047"/>
      </g>
     </g>
    </g>
    <g id="xtick_36">
     <g id="text_74">
      <!-- 12 -->
      <g style="fill: #262626" transform="translate(640.892865 396.516406) scale(0.11 -0.11)">
       <use xlink:href="#DejaVuSans-31"/>
       <use xlink:href="#DejaVuSans-32" x="63.623047"/>
      </g>
     </g>
    </g>
    <g id="xtick_37">
     <g id="text_75">
      <!-- 14 -->
      <g style="fill: #262626" transform="translate(672.341171 396.516406) scale(0.11 -0.11)">
       <use xlink:href="#DejaVuSans-31"/>
       <use xlink:href="#DejaVuSans-34" x="63.623047"/>
      </g>
     </g>
    </g>
    <g id="xtick_38">
     <g id="text_76">
      <!-- 16 -->
      <g style="fill: #262626" transform="translate(703.789476 396.516406) scale(0.11 -0.11)">
       <use xlink:href="#DejaVuSans-31"/>
       <use xlink:href="#DejaVuSans-36" x="63.623047"/>
      </g>
     </g>
    </g>
    <g id="xtick_39">
     <g id="text_77">
      <!-- 18 -->
      <g style="fill: #262626" transform="translate(735.237781 396.516406) scale(0.11 -0.11)">
       <use xlink:href="#DejaVuSans-31"/>
       <use xlink:href="#DejaVuSans-38" x="63.623047"/>
      </g>
     </g>
    </g>
    <g id="xtick_40">
     <g id="text_78">
      <!-- 20 -->
      <g style="fill: #262626" transform="translate(766.686086 396.516406) scale(0.11 -0.11)">
       <use xlink:href="#DejaVuSans-32"/>
       <use xlink:href="#DejaVuSans-30" x="63.623047"/>
      </g>
     </g>
    </g>
    <g id="text_79">
     <!-- Iteration -->
     <g style="fill: #262626" transform="translate(635.020625 411.922187) scale(0.12 -0.12)">
      <use xlink:href="#DejaVuSans-49"/>
      <use xlink:href="#DejaVuSans-74" x="29.492188"/>
      <use xlink:href="#DejaVuSans-65" x="68.701172"/>
      <use xlink:href="#DejaVuSans-72" x="130.224609"/>
      <use xlink:href="#DejaVuSans-61" x="171.337891"/>
      <use xlink:href="#DejaVuSans-74" x="232.617188"/>
      <use xlink:href="#DejaVuSans-69" x="271.826172"/>
      <use xlink:href="#DejaVuSans-6f" x="299.609375"/>
      <use xlink:href="#DejaVuSans-6e" x="360.791016"/>
     </g>
    </g>
   </g>
   <g id="matplotlib.axis_8">
    <g id="ytick_18">
     <g id="text_80">
      <!-- 0.54 -->
      <g style="fill: #262626" transform="translate(440.93375 382.837266) scale(0.11 -0.11)">
       <use xlink:href="#DejaVuSans-30"/>
       <use xlink:href="#DejaVuSans-2e" x="63.623047"/>
       <use xlink:href="#DejaVuSans-35" x="95.410156"/>
       <use xlink:href="#DejaVuSans-34" x="159.033203"/>
      </g>
     </g>
    </g>
    <g id="ytick_19">
     <g id="text_81">
      <!-- 0.56 -->
      <g style="fill: #262626" transform="translate(440.93375 351.993266) scale(0.11 -0.11)">
       <use xlink:href="#DejaVuSans-30"/>
       <use xlink:href="#DejaVuSans-2e" x="63.623047"/>
       <use xlink:href="#DejaVuSans-35" x="95.410156"/>
       <use xlink:href="#DejaVuSans-36" x="159.033203"/>
      </g>
     </g>
    </g>
    <g id="ytick_20">
     <g id="text_82">
      <!-- 0.58 -->
      <g style="fill: #262626" transform="translate(440.93375 321.149266) scale(0.11 -0.11)">
       <use xlink:href="#DejaVuSans-30"/>
       <use xlink:href="#DejaVuSans-2e" x="63.623047"/>
       <use xlink:href="#DejaVuSans-35" x="95.410156"/>
       <use xlink:href="#DejaVuSans-38" x="159.033203"/>
      </g>
     </g>
    </g>
    <g id="ytick_21">
     <g id="text_83">
      <!-- 0.60 -->
      <g style="fill: #262626" transform="translate(440.93375 290.305266) scale(0.11 -0.11)">
       <use xlink:href="#DejaVuSans-30"/>
       <use xlink:href="#DejaVuSans-2e" x="63.623047"/>
       <use xlink:href="#DejaVuSans-36" x="95.410156"/>
       <use xlink:href="#DejaVuSans-30" x="159.033203"/>
      </g>
     </g>
    </g>
    <g id="ytick_22">
     <g id="text_84">
      <!-- 0.62 -->
      <g style="fill: #262626" transform="translate(440.93375 259.461266) scale(0.11 -0.11)">
       <use xlink:href="#DejaVuSans-30"/>
       <use xlink:href="#DejaVuSans-2e" x="63.623047"/>
       <use xlink:href="#DejaVuSans-36" x="95.410156"/>
       <use xlink:href="#DejaVuSans-32" x="159.033203"/>
      </g>
     </g>
    </g>
    <g id="ytick_23">
     <g id="text_85">
      <!-- 0.64 -->
      <g style="fill: #262626" transform="translate(440.93375 228.617266) scale(0.11 -0.11)">
       <use xlink:href="#DejaVuSans-30"/>
       <use xlink:href="#DejaVuSans-2e" x="63.623047"/>
       <use xlink:href="#DejaVuSans-36" x="95.410156"/>
       <use xlink:href="#DejaVuSans-34" x="159.033203"/>
      </g>
     </g>
    </g>
   </g>
   <g id="PolyCollection_16">
    <defs>
     <path id="m4e7ea0e836" d="M 490.65009 -128.637437 
L 490.65009 -116.861404 
L 506.374243 -119.390041 
L 522.098395 -105.512767 
L 537.822548 -107.842839 
L 553.5467 -112.184774 
L 569.270853 -116.638569 
L 584.995005 -119.076614 
L 600.719158 -106.5707 
L 616.44331 -110.984724 
L 632.167463 -114.504132 
L 647.891615 -106.890863 
L 663.615768 -116.002814 
L 679.339921 -119.066761 
L 695.064073 -111.951194 
L 710.788226 -108.039505 
L 726.512378 -112.018614 
L 742.236531 -114.659754 
L 757.960683 -121.896721 
L 773.684836 -116.71396 
L 773.684836 -128.03167 
L 773.684836 -128.03167 
L 757.960683 -131.730844 
L 742.236531 -125.660627 
L 726.512378 -129.703618 
L 710.788226 -130.293148 
L 695.064073 -131.528593 
L 679.339921 -125.563783 
L 663.615768 -129.098518 
L 647.891615 -126.629402 
L 632.167463 -129.467366 
L 616.44331 -125.443925 
L 600.719158 -125.443142 
L 584.995005 -132.301686 
L 569.270853 -126.297185 
L 553.5467 -126.419822 
L 537.822548 -116.690919 
L 522.098395 -131.104175 
L 506.374243 -125.282382 
L 490.65009 -128.637437 
z
" style="stroke: #f77189; stroke-opacity: 0.2"/>
    </defs>
    <g clip-path="url(#pddfad4d4f6)">
     <use xlink:href="#m4e7ea0e836" x="0" y="421.617812" style="fill: #f77189; fill-opacity: 0.2; stroke: #f77189; stroke-opacity: 0.2"/>
    </g>
   </g>
   <g id="PolyCollection_17">
    <defs>
     <path id="m6a1d496d3f" d="M 490.65009 -127.103785 
L 490.65009 -118.00799 
L 506.374243 -118.70068 
L 522.098395 -114.455496 
L 537.822548 -125.848183 
L 553.5467 -120.169051 
L 569.270853 -108.984483 
L 584.995005 -125.129355 
L 600.719158 -117.938737 
L 616.44331 -114.857689 
L 632.167463 -110.551832 
L 647.891615 -120.812268 
L 663.615768 -111.631916 
L 679.339921 -105.537987 
L 695.064073 -111.712477 
L 710.788226 -113.323202 
L 726.512378 -107.601138 
L 742.236531 -115.776368 
L 757.960683 -116.692127 
L 773.684836 -117.492194 
L 773.684836 -132.881837 
L 773.684836 -132.881837 
L 757.960683 -126.159977 
L 742.236531 -128.404344 
L 726.512378 -127.195486 
L 710.788226 -131.213176 
L 695.064073 -129.444838 
L 679.339921 -128.369417 
L 663.615768 -127.631874 
L 647.891615 -130.21033 
L 632.167463 -132.771025 
L 616.44331 -123.349399 
L 600.719158 -131.723852 
L 584.995005 -134.011488 
L 569.270853 -130.488484 
L 553.5467 -130.435117 
L 537.822548 -131.503742 
L 522.098395 -126.523968 
L 506.374243 -133.211138 
L 490.65009 -127.103785 
z
" style="stroke: #ae9d31; stroke-opacity: 0.2"/>
    </defs>
    <g clip-path="url(#pddfad4d4f6)">
     <use xlink:href="#m6a1d496d3f" x="0" y="421.617812" style="fill: #ae9d31; fill-opacity: 0.2; stroke: #ae9d31; stroke-opacity: 0.2"/>
    </g>
   </g>
   <g id="PolyCollection_18">
    <defs>
     <path id="me7a1968fa6" d="M 490.65009 -124.255857 
L 490.65009 -116.127289 
L 506.374243 -107.928542 
L 522.098395 -114.146715 
L 537.822548 -119.143638 
L 553.5467 -123.28899 
L 569.270853 -118.408143 
L 584.995005 -113.437358 
L 600.719158 -121.34279 
L 616.44331 -117.289922 
L 632.167463 -117.33476 
L 647.891615 -123.23428 
L 663.615768 -120.917163 
L 679.339921 -123.40493 
L 695.064073 -126.532026 
L 710.788226 -130.322905 
L 726.512378 -118.801408 
L 742.236531 -115.588648 
L 757.960683 -124.728161 
L 773.684836 -117.168635 
L 773.684836 -135.82077 
L 773.684836 -135.82077 
L 757.960683 -134.831149 
L 742.236531 -130.893615 
L 726.512378 -127.356553 
L 710.788226 -135.607502 
L 695.064073 -135.4544 
L 679.339921 -134.836215 
L 663.615768 -135.660557 
L 647.891615 -135.707754 
L 632.167463 -128.906887 
L 616.44331 -122.371376 
L 600.719158 -131.88723 
L 584.995005 -134.687408 
L 569.270853 -133.346782 
L 553.5467 -131.531175 
L 537.822548 -124.911472 
L 522.098395 -134.83587 
L 506.374243 -129.337041 
L 490.65009 -124.255857 
z
" style="stroke: #33b07a; stroke-opacity: 0.2"/>
    </defs>
    <g clip-path="url(#pddfad4d4f6)">
     <use xlink:href="#me7a1968fa6" x="0" y="421.617812" style="fill: #33b07a; fill-opacity: 0.2; stroke: #33b07a; stroke-opacity: 0.2"/>
    </g>
   </g>
   <g id="PolyCollection_19">
    <defs>
     <path id="m65ba453e59" d="M 490.65009 -124.130512 
L 490.65009 -117.372026 
L 506.374243 -115.281901 
L 522.098395 -122.076501 
L 537.822548 -117.641473 
L 553.5467 -112.832894 
L 569.270853 -114.152278 
L 584.995005 -120.58116 
L 600.719158 -121.817555 
L 616.44331 -128.872714 
L 632.167463 -124.034805 
L 647.891615 -124.998104 
L 663.615768 -124.583839 
L 679.339921 -116.388396 
L 695.064073 -120.393427 
L 710.788226 -125.633217 
L 726.512378 -124.762821 
L 742.236531 -128.834682 
L 757.960683 -121.24343 
L 773.684836 -128.119 
L 773.684836 -138.418205 
L 773.684836 -138.418205 
L 757.960683 -130.888082 
L 742.236531 -131.959034 
L 726.512378 -138.719549 
L 710.788226 -135.620846 
L 695.064073 -127.375673 
L 679.339921 -131.380632 
L 663.615768 -133.259724 
L 647.891615 -140.974146 
L 632.167463 -137.763291 
L 616.44331 -134.023816 
L 600.719158 -135.96328 
L 584.995005 -131.592231 
L 569.270853 -133.69003 
L 553.5467 -128.230219 
L 537.822548 -130.06479 
L 522.098395 -135.871706 
L 506.374243 -132.277911 
L 490.65009 -124.130512 
z
" style="stroke: #38a9c5; stroke-opacity: 0.2"/>
    </defs>
    <g clip-path="url(#pddfad4d4f6)">
     <use xlink:href="#m65ba453e59" x="0" y="421.617812" style="fill: #38a9c5; fill-opacity: 0.2; stroke: #38a9c5; stroke-opacity: 0.2"/>
    </g>
   </g>
   <g id="PolyCollection_20">
    <defs>
     <path id="m92df2effd3" d="M 490.65009 -127.100451 
L 490.65009 -113.45003 
L 506.374243 -117.432441 
L 522.098395 -119.802204 
L 537.822548 -124.262863 
L 553.5467 -116.563651 
L 569.270853 -113.498417 
L 584.995005 -126.329981 
L 600.719158 -130.392925 
L 616.44331 -119.608908 
L 632.167463 -122.827356 
L 647.891615 -119.904716 
L 663.615768 -122.928107 
L 679.339921 -125.429272 
L 695.064073 -124.321066 
L 710.788226 -123.301909 
L 726.512378 -121.98677 
L 742.236531 -115.22317 
L 757.960683 -129.426726 
L 773.684836 -120.964244 
L 773.684836 -138.532229 
L 773.684836 -138.532229 
L 757.960683 -134.652035 
L 742.236531 -133.623407 
L 726.512378 -136.442669 
L 710.788226 -137.659216 
L 695.064073 -140.343497 
L 679.339921 -139.078325 
L 663.615768 -137.049634 
L 647.891615 -134.005271 
L 632.167463 -135.968227 
L 616.44331 -134.165108 
L 600.719158 -132.116539 
L 584.995005 -136.388699 
L 569.270853 -134.636792 
L 553.5467 -138.716825 
L 537.822548 -131.530244 
L 522.098395 -132.611804 
L 506.374243 -135.169897 
L 490.65009 -127.100451 
z
" style="stroke: #cc7af4; stroke-opacity: 0.2"/>
    </defs>
    <g clip-path="url(#pddfad4d4f6)">
     <use xlink:href="#m92df2effd3" x="0" y="421.617812" style="fill: #cc7af4; fill-opacity: 0.2; stroke: #cc7af4; stroke-opacity: 0.2"/>
    </g>
   </g>
   <g id="line2d_46">
    <path d="M 490.65009 298.868392 
L 506.374243 299.281601 
L 522.098395 303.309341 
L 537.822548 309.350933 
L 553.5467 302.315514 
L 569.270853 300.149936 
L 584.995005 295.928662 
L 600.719158 305.610891 
L 616.44331 303.403488 
L 632.167463 299.632064 
L 647.891615 304.85768 
L 663.615768 299.067146 
L 679.339921 299.302541 
L 695.064073 299.877919 
L 710.788226 302.451486 
L 726.512378 300.756696 
L 742.236531 301.457622 
L 757.960683 294.80403 
L 773.684836 299.244997 
" clip-path="url(#pddfad4d4f6)" style="fill: none; stroke: #f77189; stroke-width: 1.5; stroke-linecap: round"/>
   </g>
   <g id="line2d_47">
    <path d="M 490.65009 299.061925 
L 506.374243 295.661904 
L 522.098395 301.128081 
L 537.822548 292.94185 
L 553.5467 296.315728 
L 569.270853 301.881329 
L 584.995005 292.047391 
L 600.719158 296.786518 
L 616.44331 302.514269 
L 632.167463 299.956384 
L 647.891615 296.106513 
L 663.615768 301.985918 
L 679.339921 304.66411 
L 695.064073 301.039155 
L 710.788226 299.349623 
L 726.512378 304.219501 
L 742.236531 299.527456 
L 757.960683 300.19176 
L 773.684836 296.430797 
" clip-path="url(#pddfad4d4f6)" style="fill: none; stroke: #ae9d31; stroke-width: 1.5; stroke-linecap: round"/>
   </g>
   <g id="line2d_48">
    <path d="M 490.65009 301.42624 
L 506.374243 302.985021 
L 522.098395 297.12652 
L 537.822548 299.590258 
L 553.5467 294.20773 
L 569.270853 295.74035 
L 584.995005 297.555429 
L 600.719158 295.002803 
L 616.44331 301.787163 
L 632.167463 298.496989 
L 647.891615 292.146796 
L 663.615768 293.328953 
L 679.339921 292.49724 
L 695.064073 290.624599 
L 710.788226 288.652609 
L 726.512378 298.538832 
L 742.236531 298.376681 
L 757.960683 291.838157 
L 773.684836 295.12311 
" clip-path="url(#pddfad4d4f6)" style="fill: none; stroke: #33b07a; stroke-width: 1.5; stroke-linecap: round"/>
   </g>
   <g id="line2d_49">
    <path d="M 490.65009 300.866543 
L 506.374243 297.837906 
L 522.098395 292.643709 
L 537.822548 297.764681 
L 553.5467 301.086256 
L 569.270853 297.696659 
L 584.995005 295.531117 
L 600.719158 292.727395 
L 616.44331 290.169547 
L 632.167463 290.718764 
L 647.891615 288.631687 
L 663.615768 292.696031 
L 679.339921 297.733299 
L 695.064073 297.733262 
L 710.788226 290.990781 
L 726.512378 289.876628 
L 742.236531 291.220954 
L 757.960683 295.552057 
L 773.684836 288.34921 
" clip-path="url(#pddfad4d4f6)" style="fill: none; stroke: #38a9c5; stroke-width: 1.5; stroke-linecap: round"/>
   </g>
   <g id="line2d_50">
    <path d="M 490.65009 301.342572 
L 506.374243 295.316644 
L 522.098395 295.410809 
L 537.822548 293.721259 
L 553.5467 293.977575 
L 569.270853 297.550208 
L 584.995005 290.258473 
L 600.719158 290.36308 
L 616.44331 294.730804 
L 632.167463 292.220021 
L 647.891615 294.662819 
L 663.615768 291.628942 
L 679.339921 289.364014 
L 695.064073 289.285531 
L 710.788226 291.13725 
L 726.512378 292.403093 
L 742.236531 297.194524 
L 757.960683 289.578432 
L 773.684836 291.869576 
" clip-path="url(#pddfad4d4f6)" style="fill: none; stroke: #cc7af4; stroke-width: 1.5; stroke-linecap: round"/>
   </g>
   <g id="line2d_51"/>
   <g id="line2d_52"/>
   <g id="line2d_53"/>
   <g id="line2d_54"/>
   <g id="line2d_55"/>
   <g id="patch_15">
    <path d="M 474.925937 378.658125 
L 474.925937 224.438125 
" style="fill: none; stroke: #262626; stroke-width: 1.25; stroke-linejoin: miter; stroke-linecap: square"/>
   </g>
   <g id="patch_16">
    <path d="M 474.925937 378.658125 
L 846.015937 378.658125 
" style="fill: none; stroke: #262626; stroke-width: 1.25; stroke-linejoin: miter; stroke-linecap: square"/>
   </g>
   <g id="text_86">
    <!-- Labeled Size: 5000 -->
    <g style="fill: #262626" transform="translate(603.360312 218.438125) scale(0.12 -0.12)">
     <use xlink:href="#DejaVuSans-4c"/>
     <use xlink:href="#DejaVuSans-61" x="55.712891"/>
     <use xlink:href="#DejaVuSans-62" x="116.992188"/>
     <use xlink:href="#DejaVuSans-65" x="180.46875"/>
     <use xlink:href="#DejaVuSans-6c" x="241.992188"/>
     <use xlink:href="#DejaVuSans-65" x="269.775391"/>
     <use xlink:href="#DejaVuSans-64" x="331.298828"/>
     <use xlink:href="#DejaVuSans-20" x="394.775391"/>
     <use xlink:href="#DejaVuSans-53" x="426.5625"/>
     <use xlink:href="#DejaVuSans-69" x="490.039062"/>
     <use xlink:href="#DejaVuSans-7a" x="517.822266"/>
     <use xlink:href="#DejaVuSans-65" x="570.3125"/>
     <use xlink:href="#DejaVuSans-3a" x="631.835938"/>
     <use xlink:href="#DejaVuSans-20" x="665.527344"/>
     <use xlink:href="#DejaVuSans-35" x="697.314453"/>
     <use xlink:href="#DejaVuSans-30" x="760.9375"/>
     <use xlink:href="#DejaVuSans-30" x="824.560547"/>
     <use xlink:href="#DejaVuSans-30" x="888.183594"/>
    </g>
   </g>
   <g id="legend_4">
    <g id="patch_17">
     <path d="M 778.62375 313.967812 
L 838.315937 313.967812 
Q 840.515937 313.967812 840.515937 311.767812 
L 840.515937 232.138125 
Q 840.515937 229.938125 838.315937 229.938125 
L 778.62375 229.938125 
Q 776.42375 229.938125 776.42375 232.138125 
L 776.42375 311.767812 
Q 776.42375 313.967812 778.62375 313.967812 
z
" style="fill: #ffffff; opacity: 0.8; stroke: #cccccc; stroke-linejoin: miter"/>
    </g>
    <g id="line2d_56">
     <path d="M 780.82375 238.846406 
L 791.82375 238.846406 
L 802.82375 238.846406 
" style="fill: none; stroke: #f77189; stroke-width: 1.5; stroke-linecap: round"/>
    </g>
    <g id="text_87">
     <!-- 0.05 -->
     <g style="fill: #262626" transform="translate(811.62375 242.696406) scale(0.11 -0.11)">
      <use xlink:href="#DejaVuSans-30"/>
      <use xlink:href="#DejaVuSans-2e" x="63.623047"/>
      <use xlink:href="#DejaVuSans-30" x="95.410156"/>
      <use xlink:href="#DejaVuSans-35" x="159.033203"/>
     </g>
    </g>
    <g id="line2d_57">
     <path d="M 780.82375 254.992344 
L 791.82375 254.992344 
L 802.82375 254.992344 
" style="fill: none; stroke: #ae9d31; stroke-width: 1.5; stroke-linecap: round"/>
    </g>
    <g id="text_88">
     <!-- 0.25 -->
     <g style="fill: #262626" transform="translate(811.62375 258.842344) scale(0.11 -0.11)">
      <use xlink:href="#DejaVuSans-30"/>
      <use xlink:href="#DejaVuSans-2e" x="63.623047"/>
      <use xlink:href="#DejaVuSans-32" x="95.410156"/>
      <use xlink:href="#DejaVuSans-35" x="159.033203"/>
     </g>
    </g>
    <g id="line2d_58">
     <path d="M 780.82375 271.138281 
L 791.82375 271.138281 
L 802.82375 271.138281 
" style="fill: none; stroke: #33b07a; stroke-width: 1.5; stroke-linecap: round"/>
    </g>
    <g id="text_89">
     <!-- 0.5 -->
     <g style="fill: #262626" transform="translate(811.62375 274.988281) scale(0.11 -0.11)">
      <use xlink:href="#DejaVuSans-30"/>
      <use xlink:href="#DejaVuSans-2e" x="63.623047"/>
      <use xlink:href="#DejaVuSans-35" x="95.410156"/>
     </g>
    </g>
    <g id="line2d_59">
     <path d="M 780.82375 287.284219 
L 791.82375 287.284219 
L 802.82375 287.284219 
" style="fill: none; stroke: #38a9c5; stroke-width: 1.5; stroke-linecap: round"/>
    </g>
    <g id="text_90">
     <!-- 0.75 -->
     <g style="fill: #262626" transform="translate(811.62375 291.134219) scale(0.11 -0.11)">
      <use xlink:href="#DejaVuSans-30"/>
      <use xlink:href="#DejaVuSans-2e" x="63.623047"/>
      <use xlink:href="#DejaVuSans-37" x="95.410156"/>
      <use xlink:href="#DejaVuSans-35" x="159.033203"/>
     </g>
    </g>
    <g id="line2d_60">
     <path d="M 780.82375 303.430156 
L 791.82375 303.430156 
L 802.82375 303.430156 
" style="fill: none; stroke: #cc7af4; stroke-width: 1.5; stroke-linecap: round"/>
    </g>
    <g id="text_91">
     <!-- 1.0 -->
     <g style="fill: #262626" transform="translate(811.62375 307.280156) scale(0.11 -0.11)">
      <use xlink:href="#DejaVuSans-31"/>
      <use xlink:href="#DejaVuSans-2e" x="63.623047"/>
      <use xlink:href="#DejaVuSans-30" x="95.410156"/>
     </g>
    </g>
   </g>
  </g>
 </g>
 <defs>
  <clipPath id="pad68981a73">
   <rect x="56.805938" y="22.318125" width="371.09" height="154.22"/>
  </clipPath>
  <clipPath id="pa1dd51ad70">
   <rect x="474.925937" y="22.318125" width="371.09" height="154.22"/>
  </clipPath>
  <clipPath id="p50b6967102">
   <rect x="56.805938" y="224.438125" width="371.09" height="154.22"/>
  </clipPath>
  <clipPath id="pddfad4d4f6">
   <rect x="474.925937" y="224.438125" width="371.09" height="154.22"/>
  </clipPath>
 </defs>
</svg>
